<svg xmlns="http://www.w3.org/2000/svg" width="58" height="58" fill="none" viewBox="0 0 58 58">
  <path fill="#1FAD96" d="M23.25 21.303c-4.41 0-8.82.002-13.229-.002-1.918 0-3.216-1.438-2.962-3.297.136-1.004.74-1.676 1.628-2.138 1.612-.841 3.22-1.69 4.828-2.539.853-.45 1.708-.902 2.562-1.351l3.32-1.747c2.292-1.205 4.585-2.41 6.875-3.624 1.505-.797 3.002-.81 4.501-.021 5.844 3.072 11.686 6.148 17.526 9.228 1.503.793 2.114 2.187 1.605 3.6-.426 1.178-1.486 1.892-2.84 1.892-3.797.002-7.594.002-11.39.001h-7.131l-.002-.002H23.25ZM34.5 46.17h12c1.789 0 3.147 1.083 3.512 2.775.405 1.873-1.007 3.819-2.913 4.009-.28.028-.564.044-.847.044-11.821.003-23.642.003-35.463 0-1.827 0-3.14-.858-3.62-2.36-.711-2.22.911-4.447 3.282-4.467 1.825-.015 3.65-.011 5.476-.008h.001c.811.002 1.623.004 2.434.004h10.14v.004H34.5ZM18.345 35.206c-.005-.49-.011-.98-.011-1.47l.001-.002c0-.49.006-.98.012-1.47.013-1.102.026-2.205-.028-3.305-.09-1.849-1.643-3.218-3.453-3.17-1.802.046-3.305 1.504-3.327 3.33a400.526 400.526 0 0 0 0 9.235c.02 1.824 1.526 3.282 3.329 3.33 1.806.047 3.36-1.323 3.45-3.174.054-1.1.04-2.201.027-3.304Zm13.578-1.446c0 .487.006.974.012 1.46.013 1.107.027 2.212-.029 3.315-.089 1.82-1.63 3.178-3.422 3.149-1.798-.03-3.328-1.48-3.354-3.303a349.06 349.06 0 0 1 0-9.29c.025-1.821 1.552-3.272 3.352-3.303 1.79-.032 3.335 1.327 3.424 3.144.055 1.123.041 2.251.028 3.38-.006.482-.012.966-.012 1.448h.001Zm13.607 1.428c-.007-.489-.012-.978-.012-1.468h-.003c0-.489.006-.979.011-1.469.014-1.103.027-2.206-.027-3.305-.09-1.824-1.62-3.181-3.412-3.159-1.798.023-3.337 1.471-3.362 3.292a349.901 349.901 0 0 0-.003 9.289c.023 1.822 1.54 3.277 3.341 3.315 1.81.039 3.348-1.331 3.439-3.188.053-1.1.04-2.203.027-3.307Z"/>
</svg>
