<svg xmlns="http://www.w3.org/2000/svg" width="58" height="58" fill="none" viewBox="0 0 58 58">
  <path fill="#fff" d="M43.559 51.871h-.993a5.64 5.64 0 0 0-.588-.371c-.037 0-.074-.034-.11-.068l-.184-.101-.11-.068a162.71 162.71 0 0 0-3.199-1.959c-1.434.878-2.868 1.723-4.301 2.6H33.3c-.808-.303-1.102-.877-1.066-1.654v-6.96H5.36c-.514 0-1.14-.337-1.25-.878 0-.135-.073-.236-.11-.371V6.878c.257-.405.588-.743 1.066-.878h47.758c.588.169.955.54 1.176 1.08v34.929c-.074.71-.735 1.283-1.544 1.283h-7.868v6.621c0 .845-.184 1.554-1.066 1.993l.037-.034ZM35.066 24.41c-.037-.473-.515-1.013-.956-1.08-.44-.034-.882-.102-1.323-.102H15.544c-.404 0-.772.068-1.176.169-1.03.236-1.324 1.351-.625 2.06.404.406.882.473 1.433.473h18.089c.992 0 1.764-.371 1.838-1.418 0 0-.037-.068-.074-.102h.037ZM13.67 16.606l.184.27s.184.136.294.17c.11.067.184.1.294.169h28.786c.663-.034 1.067-.372 1.288-.913.184-.473.073-.912-.331-1.283-.441-.405-.993-.44-1.544-.44H14.698c-.955.068-1.69 1.217-.992 1.994l-.037.033Zm30.478 17.396s-.037-.067-.073-.101c-.037-.068-.074-.169-.11-.236-1.545-2.804-4.523-3.784-7.5-2.94-2.942.811-4.817 3.716-4.045 6.689-.037 0-.073 0-.11.034.037 0 .073 0 .11.033.552 1.656 1.618 2.905 3.309 3.716 1.213.574 2.5.54 3.787.473.294 0 .625-.236.919-.338.147-.067.33-.101.478-.169 1.58-.608 2.647-1.688 3.198-3.141.147-.405.478-.81.184-1.25l.184-.169c0-.506 0-1.013-.11-1.486-.037-.371-.184-.743-.294-1.08l.073-.035Zm-24.412.54h4.486c.588 0 1.066-.236 1.323-.709.258-.472.22-.945-.073-1.384-.331-.473-.883-.575-1.434-.575h-8.824c-.294 0-.588.068-.882.135-.552.136-.699.54-.882.98-.147.473.257 1.351.735 1.419a6.66 6.66 0 0 0 1.176.101h4.338l.037.034Z"/>
  <path fill="#fff" d="M4.11 42.345H4v-.371c0 .135.074.236.11.371Zm36.324-.979s.33-.102.477-.17c-.147.068-.33.102-.477.17Zm3.898-4.56.184-.17-.184.17Zm-11.913.608v.1c-.037 0-.074 0-.11-.033.036 0 .073 0 .11-.034v-.033Zm9.265 13.883s-.073-.033-.11-.067c.037 0 .074.034.11.068Zm.293.203s-.073-.034-.11-.067c.037 0 .074.033.11.067ZM35.14 24.512s-.037-.068-.074-.102c0 0 .037.068.074.102Zm9.008 9.524s-.037-.067-.074-.1c0 0 .037.067.074.1Z"/>
</svg>
