<svg xmlns="http://www.w3.org/2000/svg" width="61" height="73" fill="none" viewBox="0 0 61 73">
  <g clip-path="url(#a)">
    <path fill="#FF8001" d="M8.943 8.892c11.716-11.646 30.71-11.646 42.427 0 11.715 11.647 11.715 30.53 0 42.177L30.156 72.157 8.943 51.07c-11.716-11.647-11.716-30.53 0-42.177Z"/>
    <path fill="#fff" fill-rule="evenodd" d="m30.652 42.384-9.088-8.502.023-.003-.25-.225c-2.468-2.311-3.855-5.444-3.855-8.71 0-3.267 1.387-6.4 3.855-8.71l9.302-8.713 9.873 9.275c2.135 2.269 3.305 5.192 3.29 8.215-.017 3.022-1.218 5.934-3.377 8.184v.018l-.557.528-9.216 8.643Zm-.003-29.8-6.613 6.183a8.683 8.683 0 0 0-2.03 2.835 8.207 8.207 0 0 0-.706 3.346c0 .387.027.773.08 1.156l11.86-11.095-2.591-2.424ZM25.345 32.34 38.421 20.1h.007c-.34-.48-.73-.927-1.166-1.333l-1.312-1.228-13.087 12.245a8.83 8.83 0 0 0 1.376 1.524l.034.031 1.072 1Zm5.317 4.979 6.607-6.194h-.007a8.657 8.657 0 0 0 2.242-3.384 8.19 8.19 0 0 0 .4-3.963l-11.86 11.095 2.618 2.446Z" clip-rule="evenodd"/>
    <path fill="#fff" d="M40.556 38.202a11.934 11.934 0 0 0 3.006-5.398h.153a11.55 11.55 0 0 1-.285 5.56 12.114 12.114 0 0 1-2.874 4.876v.019l-.558.531-9.212 8.643-9.088-8.502a12.168 12.168 0 0 1-3.508-5.256 11.522 11.522 0 0 1-.384-5.87h.15c.555 2.22 1.764 4.25 3.491 5.86.064.062.197.183.25.227l9.089 8.503 9.212-8.643.558-.531v-.02Z"/>
  </g>
  <defs>
    <clipPath id="a">
      <path fill="#fff" d="M0 0h60v72H0z" transform="translate(.156 .157)"/>
    </clipPath>
  </defs>
</svg>
