<svg xmlns="http://www.w3.org/2000/svg" width="84" height="38" fill="none" viewBox="0 0 84 38">
  <g clip-path="url(#a)">
    <path fill="#00AEC7" d="M55.932 38.12H0l5.07-16.612H61L55.932 38.12Z"/>
    <path fill="#fff" d="M23.861 15.28V4.89h4.557v3.441h2.096v-3.44h4.557V15.28h-4.557v-3.443h-2.096v3.443h-4.557Zm22.552-5.777 1.73-4.612h-4.444l-1.383 3.442h-.815V4.89h-4.557v10.39h4.557v-3.443h1.09l1.384 3.442h4.548l-2.11-5.777Zm8.558 2.612c-1.1 0-1.358-.861-1.358-1.533 0-.668.258-1.51 1.358-1.51 1.077 0 1.336.842 1.336 1.51 0 .672-.259 1.533-1.336 1.533Zm1.638-6.067c-1.38 0-2.328.538-2.974 1.23.022-.885.667-1.814 1.55-2.18 1.531-.649 3.299-.195 4.55-1.297V.011s-1.07.44-3.042.672c-1.185.14-2.866.517-4.351 1.456-1.855 1.166-3.169 3.088-3.169 6.975 0 5.076 2.93 6.5 5.948 6.5 2.975 0 5.626-1.51 5.626-4.837 0-3.196-1.897-4.729-4.138-4.729Zm-40.595 5.92c-.626 0-1.145-.368-1.34-.736V8.938c.217-.368.714-.735 1.34-.735 1.1 0 1.576.952 1.576 1.883 0 .115-.007.233-.023.347-.104.806-.59 1.535-1.553 1.535Zm6.263-1.882c0-2.556-1.157-4.97-3.766-5.453a5.107 5.107 0 0 0-.986-.087c-.096 0-.19.002-.285.007-.004 0-.007 0-.011.002-.834.05-1.566.31-2.124.7a4.28 4.28 0 0 0-.97.89l-.383-1.254h-3.613V19.43h4.557v-4.778c.32.287.723.534 1.207.706.452.183.97.268 1.622.268 3.306 0 4.752-2.684 4.752-5.54Z"/>
  </g>
  <defs>
    <clipPath id="a">
      <path fill="#fff" d="M0 0h84v38H0z"/>
    </clipPath>
  </defs>
</svg>
