<svg xmlns="http://www.w3.org/2000/svg" width="84" height="38" fill="none" viewBox="0 0 84 38">
  <path fill="#fff" d="m61.836 14.346 2.886-2.13H55.06v12.757h9.66v-2.13h-6.9v-3.256h5.897v-2.13H57.82v-3.11h4.015Zm-14.074 2.84h-3.345v-2.84h5.353l2.886-2.13h-11v12.757h5.75c3.221 0 5.082-1.461 5.082-4.008 0-2.443-1.672-3.78-4.726-3.78Zm-.46 5.658h-2.885v-3.529h2.885c1.757 0 2.572.585 2.572 1.775s-.878 1.754-2.572 1.754Zm25.24-10.627h-5.249v12.756h2.76v-3.612h2.51c3.346 0 5.437-1.753 5.437-4.572 0-2.818-2.091-4.572-5.458-4.572Zm-.063 7.015h-2.447v-4.886h2.447c1.778 0 2.74.877 2.74 2.443s-.962 2.443-2.74 2.443ZM36.93 22.218a4.993 4.993 0 0 1-2.385.605c-2.488 0-4.287-1.774-4.287-4.217 0-2.443 1.799-4.218 4.287-4.218a4.17 4.17 0 0 1 2.51.794l1.986-1.462-.125-.125c-1.15-1.023-2.698-1.545-4.454-1.545-1.904 0-3.64.647-4.894 1.817a6.282 6.282 0 0 0-1.924 4.655 6.586 6.586 0 0 0 1.924 4.74 6.933 6.933 0 0 0 4.873 1.879c1.986 0 3.722-.69 4.893-1.942l-1.778-1.315-.627.334ZM19.009 12.134c.502.648.92 1.358 1.275 2.11l-9.66 7.119-4.058-2.547v-3.049l4.036 2.527 8.407-6.16ZM2.447 18.606c0-.146 0-.271.02-.418l-2.446-.125c0 .167-.021.355-.021.522 0 2.923 1.192 5.575 3.116 7.495l1.735-1.732a8.018 8.018 0 0 1-2.404-5.742Zm8.155-8.142c.146 0 .271 0 .418.021l.125-2.443c-.167 0-.355-.02-.522-.02-2.928 0-5.584 1.19-7.508 3.11l1.736 1.733a8.08 8.08 0 0 1 5.75-2.4Zm0 16.285c-.146 0-.272 0-.418-.021l-.125 2.443c.167 0 .355.02.522.02 2.928 0 5.584-1.19 7.508-3.11l-1.736-1.733c-1.464 1.503-3.492 2.4-5.75 2.4Z"/>
  <path fill="#fff" d="m15.204 11.883 2.07-1.524a10.633 10.633 0 0 0-6.67-2.36v2.444c1.714.02 3.304.542 4.6 1.44Zm6.022 6.722c0-.647-.063-1.273-.167-1.9l-2.28 1.692v.209c0 2.4-1.045 4.55-2.697 6.033l1.652 1.817a10.568 10.568 0 0 0 3.492-7.85Zm-10.623 8.143a8.108 8.108 0 0 1-6.043-2.693l-1.82 1.649a10.559 10.559 0 0 0 7.863 3.487v-2.443ZM5.144 12.572l-1.652-1.816A10.527 10.527 0 0 0 0 18.606h2.447a8.117 8.117 0 0 1 2.697-6.034Z"/>
</svg>
