<svg xmlns="http://www.w3.org/2000/svg" width="179" height="28" fill="none" viewBox="0 0 179 28">
  <path fill="#231F20" fill-rule="evenodd" d="M16.777 2.052a7.073 7.073 0 0 0-1.078 4.155l.05-.04c0 3.42 1.313 4.735 3.196 4.735a2.95 2.95 0 0 0 1.281-.272 3.13 3.13 0 0 0 1.065-.806 3.37 3.37 0 0 0 .66-1.198c.138-.444.185-.914.14-1.38 0-1.88-.855-3.38-2.837-3.38-.698.02-1.38.229-1.982.605a3.655 3.655 0 0 1 .483-1.446c.396-.595 1.035-.776 2.997-1.332l.005-.001.378-.108.436-.124V0l-.494.137-.292.08-.164.045-.012.003c-2.238.613-3.088.846-3.832 1.787Zm2.23 3.077c1.201 0 1.56 1.065 1.56 2.223h.013c0 1.262-.57 2.288-1.648 2.288-1.077 0-1.722-1.052-1.722-3.354v-.578a3.646 3.646 0 0 1 1.796-.58Z" clip-rule="evenodd"/>
  <path fill="#231F20" d="M.475.743h1.568V5.07h.026L5.55.743h1.837L3.392 5.59l4.215 5.066H5.705L2.07 6.25h-.026v4.404H.475V.743Zm11.898 10.153c-1.006 2.852-2.113 3.227-3.32 3.227a3.408 3.408 0 0 1-1.446-.298l.377-1.296c.311.166.656.255 1.006.26.818 0 1.471-.57 2.012-2.282L7.922 3.47h1.622l2.15 5.185 1.698-5.185h1.584l-2.603 7.427Z"/>
  <path fill="#231F20" fill-rule="evenodd" d="M27.492 10.01a2.76 2.76 0 0 1-1.98.889 1.987 1.987 0 0 1-.835-.128 2.075 2.075 0 0 1-.72-.467 2.214 2.214 0 0 1-.486-.73 2.32 2.32 0 0 1-.173-.873c-.015-.407.085-.81.288-1.158.203-.347.498-.622.85-.79a3.987 3.987 0 0 1 1.732-.367h1.237v-.3c0-.943-.556-1.309-1.36-1.309a3.337 3.337 0 0 0-1.795.536l-.52-1.046a4.887 4.887 0 0 1 2.525-.798c1.682 0 2.623.824 2.623 2.616v2.616c-.032.679.01 1.359.123 2.028h-1.286l-.223-.72Zm-1.126-2.617a2.36 2.36 0 0 0-1.089.236.97.97 0 0 0-.357.387 1.041 1.041 0 0 0-.113.528c-.006.152.019.303.073.444.054.14.136.267.24.371a.992.992 0 0 0 .365.233c.136.049.28.066.423.051a2.16 2.16 0 0 0 1.473-.68v-1.57h-1.015Z" clip-rule="evenodd"/>
  <path fill="#231F20" d="M32.186 3.469h-1.52v7.186h1.52V7.52H35.1v3.134h1.508V3.469H35.1v2.675h-2.914V3.47Zm5.85 3.755a3.913 3.913 0 0 1 .233-1.441c.167-.459.418-.876.738-1.227.32-.35.703-.628 1.125-.814a3.16 3.16 0 0 1 1.33-.273 3.317 3.317 0 0 1 1.75.47v1.303a2.689 2.689 0 0 0-1.617-.469c-.29 0-.578.066-.843.194a2.092 2.092 0 0 0-.699.548 2.291 2.291 0 0 0-.43.808c-.09.298-.121.614-.09.927 0 1.551.783 2.424 1.978 2.424a2.875 2.875 0 0 0 1.569-.482l.422 1.082a3.782 3.782 0 0 1-2.148.626 2.953 2.953 0 0 1-1.306-.242 3.16 3.16 0 0 1-1.1-.8 3.468 3.468 0 0 1-.699-1.216 3.669 3.669 0 0 1-.177-1.418h-.036Zm8.198-3.572H44.69v7.003h1.517V7.672h1.11c.204 0 .408.192.65.704l.957 2.279h1.709l-1.276-2.65c-.242-.5-.459-.781-.829-.896.403-.238.57-.755.728-1.24.097-.297.19-.583.33-.783a.587.587 0 0 1 .51-.243c.123-.018.248-.018.37 0v-1.28a2.224 2.224 0 0 0-.65-.09 1.385 1.385 0 0 0-1.275.64c-.208.31-.337.708-.46 1.089-.219.672-.42 1.292-1.007 1.292h-.841V3.652Zm5.588-.183h1.434v5.01c.207-.381.498-.88.9-1.496l2.2-3.514h1.409v7.186h-1.41v-5.01c-.194.355-.498.88-.887 1.496l-2.26 3.514h-1.386V3.469ZM61.718 0h-1.263c0 .653.248 1.28.689 1.742a2.3 2.3 0 0 0 1.663.722 2.3 2.3 0 0 0 1.663-.722A2.524 2.524 0 0 0 65.16 0h-1.252c0 .72-.263 1.31-1.089 1.31-.825 0-1.1-.629-1.1-1.31Zm-.575 3.473h-1.476l.012 7.182h1.451l2.328-3.512c.413-.616.713-1.14.913-1.494a13.53 13.53 0 0 0 0 1.507v3.499h1.476V3.473H64.41l-2.34 3.512c-.4.616-.713 1.114-.926 1.494V3.473Zm9.697-.004h4.754l-.445 1.403h-2.816v5.783H70.84V3.469Z"/>
  <path fill="#231F20" fill-rule="evenodd" d="M76.484 5.618a3.742 3.742 0 0 0-.165 1.444c-.04.488.016.98.165 1.444.149.464.386.89.698 1.25.312.362.69.65 1.113.848a3.163 3.163 0 0 0 2.68 0 3.342 3.342 0 0 0 1.113-.847c.311-.361.549-.787.698-1.251a3.75 3.75 0 0 0 .164-1.444c.04-.488-.016-.98-.165-1.444a3.587 3.587 0 0 0-.697-1.25 3.34 3.34 0 0 0-1.113-.848 3.162 3.162 0 0 0-2.68 0 3.34 3.34 0 0 0-1.113.847c-.312.361-.55.787-.698 1.251Zm3.163-1.023c1.13 0 1.764 1.029 1.764 2.467 0 1.451-.621 2.493-1.764 2.493-1.142 0-1.788-1.055-1.788-2.493s.658-2.467 1.788-2.467Z" clip-rule="evenodd"/>
  <path fill="#231F20" d="M84.16 7.217c-.013-.491.07-.98.243-1.438.174-.458.436-.874.77-1.225.333-.35.732-.626 1.172-.813a3.41 3.41 0 0 1 1.386-.271 3.537 3.537 0 0 1 1.824.468V5.24a2.848 2.848 0 0 0-1.673-.52 2.088 2.088 0 0 0-.882.19 2.155 2.155 0 0 0-.73.546 2.246 2.246 0 0 0-.448.809 2.289 2.289 0 0 0-.09.927c0 1.549.805 2.42 2.062 2.42a3.15 3.15 0 0 0 1.635-.48l.428 1.08a3.989 3.989 0 0 1-2.264.689c-.466.02-.93-.063-1.362-.242a3.304 3.304 0 0 1-1.149-.797 3.443 3.443 0 0 1-.732-1.213 3.532 3.532 0 0 1-.19-1.418v-.013Zm7.148 6.906c1.211 0 2.321-.374 3.331-3.211l2.587-7.443h-1.578l-1.703 5.16-2.145-5.16h-1.64l3.104 7.056c-.543 1.702-1.2 2.27-2.02 2.27a2.17 2.17 0 0 1-1.009-.258l-.378 1.29c.457.203.952.304 1.45.296Z"/>
  <path fill="#231F20" fill-rule="evenodd" d="M97.701 9.333h.437c.985-1.306 1.459-2.795 1.982-5.864h3.953v5.864h.997v3.8h-1.396v-2.508h-4.539v2.508h-1.409l-.025-3.8Zm4.876-4.558h-1.372a12.343 12.343 0 0 1-1.446 4.531h2.818V4.775Zm6.708 5.885c.338-.153.645-.378.902-.66l.308.727h1.231a9.759 9.759 0 0 1-.123-2.05V6.114c0-1.811-.948-2.644-2.611-2.644a4.766 4.766 0 0 0-2.538.727l.505 1.058a3.298 3.298 0 0 1 1.799-.542c.8 0 1.355.37 1.355 1.322v.304h-1.232a3.922 3.922 0 0 0-1.725.37c-.35.17-.644.449-.846.8a2.19 2.19 0 0 0-.287 1.17 2.36 2.36 0 0 0 .168.881c.112.279.275.53.481.738.205.208.448.369.714.472.265.104.548.148.829.13a2.625 2.625 0 0 0 1.07-.238Zm-1.291-3.066a2.32 2.32 0 0 1 1.084-.238h1.01v1.586a2.136 2.136 0 0 1-1.466.688.919.919 0 0 1-.423-.048.976.976 0 0 1-.366-.234 1.068 1.068 0 0 1-.239-.378 1.114 1.114 0 0 1-.068-.45 1.03 1.03 0 0 1 .108-.537.95.95 0 0 1 .36-.39Zm5.396-3.649a7.274 7.274 0 0 1 2.507-.455c.488-.056.981.001 1.444.167.464.166.886.437 1.236.793.351.357.62.79.79 1.267.169.478.235.989.191 1.496.03.493-.04.988-.206 1.452a3.555 3.555 0 0 1-.757 1.24c-.334.354-.735.63-1.178.812a3.283 3.283 0 0 1-1.394.244 3.089 3.089 0 0 1-1.103-.208v3.619h-1.504l-.026-10.427Zm2.507 5.663c1.367 0 2.081-.964 2.081-2.447.036-.31.006-.624-.089-.92a2.12 2.12 0 0 0-.459-.79 2.02 2.02 0 0 0-.74-.512 1.962 1.962 0 0 0-.88-.134c-.31-.005-.618.04-.915.13v4.477a2.15 2.15 0 0 0 1.002.235v-.04Z" clip-rule="evenodd"/>
  <path fill="#231F20" d="M120.775 5.779a3.75 3.75 0 0 0-.243 1.438v.013c-.036.48.027.963.184 1.417.157.453.406.867.729 1.213.323.347.714.619 1.146.798.432.18.895.262 1.36.242a4.072 4.072 0 0 0 2.276-.69l-.44-1.08a3.076 3.076 0 0 1-1.622.482c-1.257 0-2.074-.872-2.074-2.42a2.298 2.298 0 0 1 .547-1.737 2.17 2.17 0 0 1 .732-.546c.278-.127.579-.192.883-.19a2.846 2.846 0 0 1 1.672.52v-1.3a3.534 3.534 0 0 0-1.823-.47 3.416 3.416 0 0 0-1.386.272c-.44.187-.838.463-1.172.813a3.65 3.65 0 0 0-.769 1.225Zm-13.318 15.067a3.769 3.769 0 0 1 .243-1.439c.174-.458.436-.874.77-1.224.333-.35.732-.627 1.172-.813a3.412 3.412 0 0 1 1.386-.272 3.536 3.536 0 0 1 1.823.468v1.302a2.848 2.848 0 0 0-1.672-.52 2.105 2.105 0 0 0-.884.189 2.166 2.166 0 0 0-.731.546 2.254 2.254 0 0 0-.453.808c-.094.3-.126.616-.095.929 0 1.548.818 2.42 2.075 2.42a3.078 3.078 0 0 0 1.622-.482l.44 1.08a4.072 4.072 0 0 1-2.276.69 3.196 3.196 0 0 1-1.361-.242 3.287 3.287 0 0 1-1.145-.798 3.425 3.425 0 0 1-.729-1.213 3.51 3.51 0 0 1-.185-1.416v-.013ZM126.94 4.807h2.062v5.848h1.468V4.807h2.013l.4-1.338h-5.943v1.338Z"/>
  <path fill="#231F20" fill-rule="evenodd" d="M134.134 3.469h2.609c2.034 0 2.684 1.013 2.684 1.935.01.36-.099.711-.308.995-.21.284-.507.481-.841.558.36.074.684.28.915.58.23.301.353.678.346 1.065 0 1-.662 2.053-2.734 2.053h-2.733l.062-7.186Zm2.709 6.054c.824 0 1.248-.329 1.248-.974s-.399-.974-1.136-.974h-1.398v1.948h1.286Zm0-3.04c.724 0 1.098-.303 1.098-.921 0-.619-.412-.908-1.248-.908h-1.173v1.855l1.323-.026Zm5.333 1.903a2.056 2.056 0 0 1-.134-.814h4.391v-.376c0-2.29-1.085-3.727-2.931-3.727s-2.994 1.566-2.994 3.701c-.049.487.003.979.155 1.442.152.463.399.887.724 1.241.325.355.72.632 1.159.812.438.18.909.26 1.38.233a4.298 4.298 0 0 0 2.32-.66l-.449-1.075a3.302 3.302 0 0 1-1.722.48 1.853 1.853 0 0 1-.787-.124 1.913 1.913 0 0 1-.672-.444 1.98 1.98 0 0 1-.44-.689Zm1.313-3.7c.961 0 1.41.88 1.41 1.785h-2.869a1.664 1.664 0 0 1 .361-1.217 1.547 1.547 0 0 1 1.098-.568Z" clip-rule="evenodd"/>
  <path fill="#231F20" d="M148.097 3.469h1.459v2.675h2.787V3.47h1.459v7.186h-1.459V7.52h-2.787v3.134h-1.459V3.469Zm9.127 0h-1.52v7.186h1.52V7.52h2.915v3.134h1.508V3.469h-1.508v2.675h-2.915V3.47Zm12.192 0h1.502v7.16h-1.502v-7.16Z"/>
  <path fill="#231F20" fill-rule="evenodd" d="M163.311 3.469h1.539v2.613c.254-.019.509-.019.763 0 2.189 0 2.915 1.058 2.915 2.26 0 1.202-.688 2.313-2.94 2.313h-2.252l-.025-7.186Zm2.214 5.932c1.251 0 1.464-.47 1.464-1.059 0-.588-.288-1.045-1.464-1.045a4.308 4.308 0 0 0-.7 0v2.051l.7.053Z" clip-rule="evenodd"/>
  <path fill="#231F20" d="M174.855 0h-1.249c0 .653.247 1.28.688 1.742.44.462 1.037.722 1.659.722.623 0 1.22-.26 1.66-.722.44-.462.688-1.089.688-1.742h-1.249c0 .72-.262 1.31-1.086 1.31-.824 0-1.111-.629-1.111-1.31Zm-.562 3.473h-1.474v7.182h1.449l2.335-3.512c.309-.477.558-.9.754-1.23l.157-.264v5.006H179V3.473h-1.448l-2.335 3.512c-.4.616-.712 1.114-.924 1.494V3.473Z"/>
  <path fill="#231F20" fill-rule="evenodd" d="M4.165 23.651c-.255.276-.56.495-.896.646-.337.15-.698.228-1.062.23-.29.02-.58-.025-.852-.13a2.058 2.058 0 0 1-.728-.487 2.206 2.206 0 0 1-.479-.757 2.31 2.31 0 0 1-.146-.898 2.117 2.117 0 0 1 .286-1.151c.202-.345.497-.617.847-.782a3.79 3.79 0 0 1 1.725-.378h1.23v-.314c0-.94-.554-1.305-1.355-1.305a3.539 3.539 0 0 0-1.798.522l-.505-1.045a4.82 4.82 0 0 1 2.537-.704c1.663 0 2.612.809 2.612 2.61v2.755c-.032.678.01 1.357.123 2.024H4.473l-.308-.836Zm-1.108-2.61a2.17 2.17 0 0 0-1.084.247.928.928 0 0 0-.359.378 1 1 0 0 0-.11.523 1.113 1.113 0 0 0 .308.823.989.989 0 0 0 .365.235c.136.05.28.067.424.052a2.148 2.148 0 0 0 1.466-.679v-1.619l-1.01.04Z" clip-rule="evenodd"/>
  <path fill="#231F20" d="M12.123 17.345H7.37v7.186h1.494v-5.796h2.816l.444-1.39Z"/>
  <path fill="#231F20" fill-rule="evenodd" d="M13.312 17.56a7.538 7.538 0 0 1 2.507-.442c.487-.056.98.001 1.444.167a3.29 3.29 0 0 1 1.236.794c.35.356.62.789.79 1.266.17.478.234.989.19 1.496.029.493-.043.986-.21 1.448a3.545 3.545 0 0 1-.757 1.236 3.39 3.39 0 0 1-1.176.809 3.284 3.284 0 0 1-1.391.243 3.39 3.39 0 0 1-1.104-.196V28h-1.504l-.025-10.44Zm2.507 5.702c1.367 0 2.081-.963 2.081-2.434.044-.313.02-.633-.071-.936a2.129 2.129 0 0 0-.455-.81 2.028 2.028 0 0 0-.749-.526 1.961 1.961 0 0 0-.894-.136c-.31 0-.618.05-.915.143v4.478a2.32 2.32 0 0 0 1.003.221Zm7.887 1.036c.339-.15.646-.37.903-.647l.308.836h1.232a9.39 9.39 0 0 1-.123-2.024V19.71c0-1.802-.949-2.611-2.612-2.611a4.796 4.796 0 0 0-2.537.704l.505 1.045a3.443 3.443 0 0 1 1.798-.522c.8 0 1.355.365 1.355 1.305v.314h-1.232a3.788 3.788 0 0 0-1.724.378c-.35.165-.645.437-.847.782a2.118 2.118 0 0 0-.286 1.15 2.3 2.3 0 0 0 .141.898c.107.285.269.543.476.758.207.214.454.38.725.486.272.106.561.15.85.13.367 0 .73-.078 1.068-.228Zm-1.29-3.01a2.172 2.172 0 0 1 1.084-.248l1.01-.039v1.619a2.148 2.148 0 0 1-1.465.679.934.934 0 0 1-.427-.047.978.978 0 0 1-.367-.235 1.052 1.052 0 0 1-.239-.378 1.101 1.101 0 0 1-.064-.45 1 1 0 0 1 .11-.523.928.928 0 0 1 .358-.378Zm5.434-3.734a7.597 7.597 0 0 1 2.518-.442c.484-.046.973.019 1.43.19.458.17.873.443 1.218.798.345.355.61.785.776 1.258.167.472.231.977.189 1.479.028.493-.044.986-.21 1.449a3.546 3.546 0 0 1-.762 1.236 3.404 3.404 0 0 1-1.181.81 3.31 3.31 0 0 1-1.397.243 3.417 3.417 0 0 1-1.108-.196V28h-1.51l.038-10.446Zm2.518 5.705c1.372 0 2.09-.964 2.09-2.436.044-.313.02-.633-.072-.935a2.128 2.128 0 0 0-.457-.812 2.039 2.039 0 0 0-.751-.526 1.979 1.979 0 0 0-.898-.136c-.312.001-.621.05-.919.143v4.48c.316.149.66.224 1.007.222Z" clip-rule="evenodd"/>
  <path fill="#231F20" d="M36.94 17.345h-1.52v7.186h1.52v-3.134h2.902v3.134h1.52v-7.186h-1.52v2.662H36.94v-2.662Zm12.18.013h1.514v7.16H49.12v-7.16Z"/>
  <path fill="#231F20" fill-rule="evenodd" d="M43.027 17.345h1.5v2.618h.764c2.19 0 2.915 1.06 2.915 2.251 0 1.191-.675 2.317-2.94 2.317h-2.24v-7.186Zm2.214 5.943c1.251 0 1.464-.472 1.464-1.06 0-.59-.288-1.048-1.464-1.048h-.713v2.108h.713Z" clip-rule="evenodd"/>
  <path fill="#231F20" d="M54.583 13.876h-1.274c.044.61.31 1.18.747 1.596a2.33 2.33 0 0 0 1.607.648 2.33 2.33 0 0 0 1.607-.648 2.45 2.45 0 0 0 .747-1.596h-1.249c0 .691-.262 1.28-1.086 1.28-.824 0-1.1-.614-1.1-1.28Zm-.575 3.405h-1.473l.025 7.002h1.424l2.334-3.418c.4-.614.712-1.113.912-1.472-.028.495-.028.99 0 1.485v3.405h1.486v-7.002h-1.449L54.945 20.7c-.412.614-.712 1.1-.937 1.472v-4.89Zm13.285 7.507C66.286 27.625 65.177 28 63.968 28a3.43 3.43 0 0 1-1.449-.297l.378-1.29c.315.155.659.239 1.008.245.819 0 1.474-.568 2.015-2.27l-3.086-7.043h1.625l2.154 5.224 1.7-5.224h1.575l-2.595 7.443Zm5.231-7.443h-1.447v7.186h1.447v-3.134h2.799v3.134h1.46v-7.186h-1.46v2.662h-2.799v-2.662Zm6.209 0h1.471v4.845c.223-.367.52-.85.915-1.458l2.312-3.387h1.434v6.938h-1.46v-4.845c-.21.355-.506.85-.901 1.459l-2.386 3.386h-1.434l.05-6.938Z"/>
  <path fill="#231F20" fill-rule="evenodd" d="M89.193 17.345h-2.602l-.062 6.938h2.74c2.064 0 2.727-1.018 2.727-1.986a1.61 1.61 0 0 0-.346-1.018 1.56 1.56 0 0 0-.905-.56c.333-.077.63-.268.84-.542.21-.274.32-.613.31-.96 0-.904-.65-1.872-2.702-1.872Zm1.427 4.901c0 .637-.426.942-1.251.942h-1.277v-1.884h1.402c.738 0 1.126.306 1.126.942Zm-.226-2.89c0 .612-.375.904-1.1.904H87.98v-1.795h1.163c.951 0 1.251.28 1.251.892Zm4.343 1.851a2.06 2.06 0 0 0 .133.816c.099.26.249.495.44.69.192.195.421.347.672.445.252.098.52.14.788.123a3.368 3.368 0 0 0 1.721-.48l.45 1.064a4.218 4.218 0 0 1-2.333.66 3.134 3.134 0 0 1-1.375-.231 3.239 3.239 0 0 1-1.155-.81 3.398 3.398 0 0 1-.721-1.24 3.495 3.495 0 0 1-.154-1.439c0-2.152 1.135-3.708 2.993-3.708 1.859 0 2.931 1.44 2.931 3.734v.376h-4.39Zm2.856-1.115c0-.894-.449-1.789-1.422-1.789-.21.015-.415.073-.603.171a1.583 1.583 0 0 0-.49.402 1.693 1.693 0 0 0-.365 1.215h2.88Zm5.472-2.973a7.698 7.698 0 0 0-2.511.442L100.566 28h1.52v-3.619a3.42 3.42 0 0 0 1.105.196c.475.02.95-.062 1.392-.243a3.392 3.392 0 0 0 1.176-.81c.333-.352.59-.773.756-1.235a3.65 3.65 0 0 0 .205-1.448 3.544 3.544 0 0 0-.186-1.495 3.434 3.434 0 0 0-.787-1.267 3.294 3.294 0 0 0-1.236-.794 3.196 3.196 0 0 0-1.446-.166Zm2.085 3.71c0 1.47-.716 2.433-2.085 2.433a2.288 2.288 0 0 1-1.004-.221v-4.478c.297-.096.606-.144.917-.143.304-.025.61.022.895.136.285.115.541.295.75.526.209.231.365.508.456.81.091.303.115.623.071.936Z" clip-rule="evenodd"/>
  <path fill="#231F20" d="M114.592 17.345h1.473v4.845c.212-.367.524-.85.924-1.458l2.335-3.387h1.436v6.938h-1.499V20.91c-.027-.49-.027-.981 0-1.471-.199.355-.499.85-.911 1.459l-2.323 3.386h-1.448l.013-6.938Zm7.356 1.325h2.144v5.861h1.527V18.67h2.081l.429-1.325h-6.181v1.325Z"/>
  <path fill="#231F20" fill-rule="evenodd" d="M130.393 21.207a2.06 2.06 0 0 0 .574 1.506c.192.196.421.347.672.445.251.098.52.14.788.123a3.297 3.297 0 0 0 1.722-.48l.449 1.064a4.187 4.187 0 0 1-2.321.66 3.147 3.147 0 0 1-1.377-.231 3.257 3.257 0 0 1-1.157-.81 3.414 3.414 0 0 1-.725-1.239 3.495 3.495 0 0 1-.159-1.44c0-2.152 1.147-3.708 2.994-3.708 1.846 0 2.932 1.44 2.932 3.734v.376h-4.392Zm2.857-1.115c0-.894-.449-1.789-1.41-1.789-.21.013-.416.07-.605.168a1.561 1.561 0 0 0-.493.402 1.648 1.648 0 0 0-.361 1.22h2.869Z" clip-rule="evenodd"/>
  <path fill="#231F20" d="M135.736 18.67h2.062v5.861h1.467V18.67h2.001l.413-1.325h-5.943v1.325Z"/>
</svg>
