<svg xmlns="http://www.w3.org/2000/svg" width="41" height="47" fill="none" viewBox="0 0 41 47">
  <g clip-path="url(#a)">
    <path fill="#F43" d="M6.766 6.489c7.81-7.441 20.474-7.441 28.284 0 7.81 7.44 7.81 19.505 0 26.946L20.908 46.908 6.766 33.435c-7.81-7.44-7.81-19.505 0-26.946Z"/>
    <path fill="#fff" d="M8.295 7.946c6.966-6.637 18.26-6.637 25.227 0 6.966 6.637 6.966 17.397 0 24.033-6.966 6.637-18.26 6.637-25.227 0-6.966-6.636-6.966-17.396 0-24.033Z"/>
    <path fill="#000" d="M22.481 14.887h-4.652v6.43h4.652c1.065 0 1.96-.314 2.683-.942.723-.628 1.084-1.404 1.084-2.328 0-.905-.361-1.654-1.084-2.245-.704-.61-1.599-.915-2.683-.915Zm0 9.978h-4.652v5.876h-3.71V11.34h8.647c2.055 0 3.768.637 5.137 1.912 1.37 1.275 2.055 2.873 2.055 4.795 0 1.903-.732 3.52-2.197 4.85-1.446 1.312-3.206 1.968-5.28 1.968Z"/>
  </g>
  <defs>
    <clipPath id="a">
      <path fill="#fff" d="M0 0h40v46H0z" transform="translate(.908 .908)"/>
    </clipPath>
  </defs>
</svg>
