<svg width="41" height="47" viewBox="0 0 41 47" fill="none" xmlns="http://www.w3.org/2000/svg">
<g clip-path="url(#clip0_468_569)">
<path d="M6.76607 6.48894C14.5766 -0.952042 27.2399 -0.952042 35.0503 6.48894C42.8608 13.9299 42.8608 25.9941 35.0503 33.4351L20.9082 46.9082L6.76607 33.4351C-1.04442 25.9941 -1.04442 13.9299 6.76607 6.48894Z" fill="#FF4433"/>
<path d="M8.29496 7.94598C15.2612 1.30935 26.5556 1.30935 33.5218 7.94598C40.488 14.5826 40.488 25.3427 33.5218 31.9793C26.5556 38.616 15.2612 38.616 8.29496 31.9793C1.32876 25.3427 1.32876 14.5826 8.29496 7.94598Z" fill="white"/>
<path d="M22.481 14.8875H17.8292V21.3175H22.481C23.5464 21.3175 24.4407 21.0034 25.1636 20.3752C25.8866 19.747 26.2481 18.9709 26.2481 18.0471C26.2481 17.1417 25.8866 16.3934 25.1636 15.8021C24.4597 15.1923 23.5655 14.8875 22.481 14.8875ZM22.481 24.8651H17.8292V30.7409H14.1191V11.3398H22.7664C24.8212 11.3398 26.5335 11.9773 27.9034 13.2522C29.2732 14.5272 29.9582 16.1254 29.9582 18.0471C29.9582 19.9502 29.2257 21.567 27.7607 22.8973C26.3147 24.2092 24.5548 24.8651 22.481 24.8651Z" fill="black"/>
</g>
<defs>
<clipPath id="clip0_468_569">
<rect width="40" height="46" fill="white" transform="translate(0.908203 0.908203)"/>
</clipPath>
</defs>
</svg>
