<svg width="58" height="58" viewBox="0 0 58 58" fill="none" xmlns="http://www.w3.org/2000/svg">
<path d="M30.1349 5.45782C30.1349 5.45782 30.0419 5.64394 29.9798 5.70597C29.7317 6.04717 29.4525 6.41937 29.1734 6.76056C29.0493 6.94667 28.9252 6.97768 28.7701 6.76056C28.6306 6.57445 28.4832 6.38835 28.3359 6.20225C28.1886 6.01614 28.0412 5.83004 27.9016 5.64393C27.7776 5.48885 27.7776 5.36477 27.9016 5.20968C28.005 5.0856 28.1119 4.96496 28.2187 4.84433C28.4324 4.60309 28.6461 4.36186 28.8322 4.09305C28.9252 3.96898 28.9562 3.96898 29.0493 4.09305C29.3905 4.49624 29.7317 4.89955 30.0419 5.33375C30.0419 5.35292 30.0537 5.37209 30.0701 5.39859C30.0802 5.41495 30.0921 5.43414 30.1039 5.45782H30.1349Z" fill="white"/>
<path d="M23.8481 14.5451C24.4955 14.5239 25.0028 14.2216 25.4813 13.8329C26.0086 13.4296 26.2878 12.8403 26.5359 12.22C26.6271 11.9462 26.4836 11.7732 26.3518 11.6144C26.3044 11.5573 26.2586 11.502 26.2257 11.4445C25.8535 10.7932 25.4813 10.1418 25.2952 9.39735C25.1401 8.80802 25.2332 8.24969 25.6364 7.81544C26.0086 7.44323 26.5669 7.22611 27.0942 7.3812C27.3234 7.44369 27.4546 7.64609 27.5912 7.85685C27.658 7.9599 27.7261 8.06497 27.8076 8.15664C28.1177 8.49771 28.4277 8.86977 28.7378 9.24184C28.9239 9.48998 29.0483 9.49041 29.2344 9.24226C29.4671 8.9476 29.7074 8.66844 29.9478 8.38928C30.1882 8.11011 30.4286 7.83095 30.6612 7.53629C30.7853 7.3812 30.8784 7.35018 31.0645 7.3812C32.5223 7.50527 32.8635 8.37377 32.5843 9.61447C32.4292 10.2969 32.057 10.9172 31.6848 11.4755C31.3746 11.9098 31.3746 12.282 31.5918 12.7162C32.057 13.6778 32.8325 14.2671 33.8561 14.5463C33.8883 14.5463 33.9206 14.5537 33.9515 14.5609C34.0099 14.5744 34.0637 14.5868 34.1042 14.5463C34.184 14.4665 34.127 14.3868 34.07 14.307C34.0605 14.2937 34.051 14.2804 34.0422 14.2671C33.794 13.8019 33.6699 13.3366 33.794 12.8403C33.9801 12.0959 34.7866 11.8167 35.3449 12.313C35.5 12.4371 35.6551 12.5612 35.7792 12.6852C36.0893 12.954 36.4098 12.954 36.7407 12.6852C36.7407 12.6852 36.9888 12.4991 37.0819 12.375C37.361 12.0028 37.7022 11.9718 38.1055 12.1269C38.4777 12.282 38.6948 12.5611 38.7568 12.9954C38.8123 13.7435 38.4469 14.2937 38.0808 14.8448C38.0372 14.9104 37.9933 14.9765 37.9504 15.0426C37.9035 15.1362 37.8213 15.1238 37.7438 15.1121C37.7187 15.1083 37.694 15.1046 37.6712 15.1046C37.2691 15.1046 36.8636 15.1149 36.457 15.1252C35.6402 15.1459 34.8187 15.1667 34.0111 15.1046C32.3672 14.9495 31.1575 14.143 30.4751 12.375C30.3821 12.1269 30.289 12.0959 30.0719 12.0959H28.0247C27.7146 12.0959 27.5905 12.1889 27.4974 12.4991C27.0012 13.8019 26.1016 14.6393 24.7369 15.0115C24.2182 15.1469 23.7159 15.151 23.2181 15.1551C23.0312 15.1566 22.8449 15.1582 22.6587 15.1666H20.8597C20.3324 15.1976 19.9602 15.1046 19.712 14.5773C19.6832 14.5196 19.654 14.4626 19.625 14.406C19.3737 13.9148 19.1387 13.4554 19.2778 12.8713C19.3398 12.5301 19.5569 12.251 19.8981 12.1269C20.2393 12.0028 20.5495 11.9408 20.8287 12.282C20.8907 12.344 20.9527 12.4061 21.0458 12.4681C21.8522 13.1815 21.8833 13.1815 22.5656 12.375C22.8758 12.0028 23.217 11.9718 23.6202 12.1269C24.0235 12.282 24.2096 12.5922 24.2096 13.0264C24.2096 13.3056 24.2096 13.5537 24.1165 13.8018C24.0271 14.0404 23.9376 14.279 23.8481 14.5451Z" fill="white"/>
<path d="M47.8762 34.3658C47.868 34.3869 47.8593 34.4076 47.8503 34.4281C47.7947 34.42 47.7399 34.413 47.6858 34.406C47.5066 34.3831 47.3347 34.3611 47.1628 34.3038C46.0152 33.9626 44.8986 33.5284 43.906 32.846C43.2856 32.4117 42.7583 31.8844 42.2931 31.2951C42.169 31.109 42.231 30.9539 42.3861 30.7988C42.5412 30.6437 42.6653 30.5507 42.8514 30.7057C44.0301 31.5432 45.3018 32.2256 46.6976 32.6599C47.9383 33.0321 49.148 33.1251 50.3266 32.5048C51.009 32.1636 51.3812 31.5432 51.5053 30.7988C51.5363 30.6127 51.5363 30.4576 51.2572 30.4576C50.7003 30.5022 50.1274 30.4667 49.5615 30.4317C49.3394 30.418 49.1184 30.4043 48.8998 30.3956C47.2249 30.3025 45.612 29.8993 44.0921 29.1859C44.0649 29.1723 44.0288 29.1617 43.9906 29.1504C43.8544 29.1104 43.6918 29.0627 43.8129 28.8447C43.8322 28.8062 43.8475 28.7584 43.8634 28.7084C43.9246 28.5169 43.9958 28.2939 44.3402 28.4415C44.547 28.5333 44.7878 28.5742 45.0247 28.6144C45.1077 28.6285 45.1903 28.6425 45.2708 28.6586C45.4689 28.6927 45.6656 28.7284 45.8614 28.7639C46.5544 28.8896 47.2369 29.0134 47.9383 29.0618L48.0928 29.0744C49.1941 29.1649 50.347 29.2595 51.4433 28.8447C52.8701 28.2864 53.9247 26.8285 53.5835 25.1846C53.3974 25.2621 53.2113 25.3319 53.0252 25.4017C52.8391 25.4715 52.653 25.5413 52.4669 25.6189C51.1331 26.1462 49.7683 26.4873 48.3415 26.6114C47.2559 26.7045 46.1703 26.7355 45.0847 26.6114L45.0628 26.6089C44.5557 26.5493 44.4975 26.5424 44.6504 26.0531C44.7307 25.7856 44.9494 25.7949 45.1274 25.8026C45.1558 25.8038 45.1831 25.805 45.2087 25.805C47.0078 25.5878 48.7758 25.2777 50.5127 24.6883C51.7535 24.2541 52.8701 23.6647 53.4904 22.424C54.1108 21.2143 54.2038 19.9736 53.5525 18.7019C52.2808 20.0977 50.8539 21.2764 49.21 22.2069C47.8762 22.9513 46.4804 23.5096 44.9916 23.8819C44.8986 23.9129 44.8055 23.9439 44.7435 23.8508C44.6194 23.6958 44.7435 23.1064 44.8985 23.0134C45.0457 22.9259 45.1928 22.8389 45.3398 22.752L45.3413 22.7511C46.34 22.1608 47.3296 21.5758 48.2485 20.8732C49.3651 20.0357 50.4507 19.1672 51.1641 17.8955C52.0946 16.2825 52.2187 13.8632 50.7299 12.4053C50.5127 12.1572 50.4817 12.1572 50.3266 12.4053C49.7373 13.4289 49.0549 14.4215 48.3415 15.383C47.1008 17.058 45.7981 18.7329 44.3713 20.2528C42.9134 21.7727 41.4246 23.1995 39.6566 24.3161C39.3774 24.5022 39.3154 24.6573 39.5945 24.9054C40.0288 25.3087 40.339 25.836 40.432 26.4253C40.6802 28.1623 39.6256 29.5271 37.9506 29.9613C36.9715 30.2061 36.0829 30.0283 35.1657 29.8448L35.128 29.8372C34.7868 29.7752 34.7248 29.8062 34.7248 30.1474V34.2728C34.7248 34.2907 34.7225 34.3098 34.7201 34.3295C34.7101 34.4125 34.6986 34.5078 34.8488 34.5829C35.4072 33.1872 36.6168 32.6909 37.9816 32.4737C38.1677 32.4427 38.3228 32.4737 38.3538 32.7219C38.5089 33.4973 38.695 34.2728 38.9742 35.0172C39.4084 36.1648 39.9978 37.1574 41.2075 37.5917C41.9829 37.8708 42.8824 37.8088 43.5648 37.2505C43.7819 37.1264 43.7819 37.0023 43.5648 36.8783C43.2546 36.6611 42.9444 36.444 42.6653 36.2269C41.4556 35.2343 40.463 34.1177 40.0598 32.5668C40.0551 32.555 40.05 32.5431 40.0447 32.5313L40.031 32.5009C39.9707 32.3689 39.9133 32.2434 40.1529 32.1636C40.1954 32.1514 40.2391 32.1345 40.283 32.1175C40.4636 32.0477 40.6485 31.9762 40.7732 32.2256C41.011 32.6418 41.3344 33.0295 41.6339 33.3888L41.6727 33.4353C42.6032 34.5519 43.6889 35.4825 45.2397 35.6686C46.2119 35.7597 47.4221 35.4045 47.8503 34.4281C47.9096 34.4367 47.9699 34.4466 48.0313 34.4589L47.8762 34.3658Z" fill="white"/>
<path d="M5.63021 37.3742H6.56074C6.4987 37.2036 6.44442 37.033 6.39014 36.8624C6.33586 36.6918 6.28158 36.5212 6.21955 36.3506C6.00242 35.6682 6.40565 35.1409 7.08804 35.1099C7.55331 35.1099 7.98755 35.234 8.4218 35.4201C8.48678 35.1601 8.44588 34.9305 8.40473 34.6994C8.38695 34.5995 8.36912 34.4994 8.35976 34.3965C9.25927 34.6446 9.94166 35.1099 9.97268 36.0714C9.97268 36.5677 10.0037 37.033 10.3449 37.4672C10.3759 37.5293 10.4069 37.6223 10.3449 37.6843C10.1082 38.0263 10.3175 38.2121 10.5001 38.3741C10.5329 38.4032 10.5647 38.4315 10.593 38.4598C11.3219 39.1421 12.043 39.8245 12.7641 40.5068C13.4852 41.1892 14.2066 41.8718 14.9355 42.5541C15.1526 42.7712 15.3697 42.9263 15.742 42.8023C16.2693 42.6162 16.7345 42.8953 17.1378 43.1745C17.1688 43.1951 17.1963 43.2193 17.2239 43.2434C17.2791 43.2916 17.3342 43.3399 17.4169 43.3606C18.5646 43.4226 19.6502 43.2365 20.7358 42.8643C21.015 42.7712 21.2011 42.6162 20.9219 42.2439C20.3636 41.4685 19.9604 40.631 19.7743 39.6695C19.371 37.5293 20.8599 36.0714 22.845 36.1025C23.0931 36.1025 23.0931 36.2575 23.0931 36.4126V38.863C23.0931 39.7315 23.8996 40.4449 24.7061 40.4139H25.9468C27.0324 40.3208 27.9319 40.6931 28.6453 41.4995C28.8004 41.6856 28.8624 41.7477 29.0485 41.4995C29.6999 40.7241 30.5064 40.3208 31.5299 40.3829H32.9567C33.7942 40.4139 34.6007 39.6695 34.6007 38.7079V36.3816C34.6007 36.1645 34.6627 36.0714 34.8798 36.0714C36.6478 36.0714 38.1057 37.2811 37.9196 39.2663C37.7955 40.3519 37.3613 41.3134 36.7719 42.1819C36.5548 42.4611 36.5858 42.6782 36.927 42.8023C37.8575 43.1435 38.7881 43.3606 39.7806 43.3296C39.9509 43.3296 39.9913 43.2257 40.0445 43.0893L40.0598 43.0504C40.2769 42.5231 40.5871 42.0578 41.0834 41.7477C41.2385 41.6546 41.3315 41.6236 41.4866 41.7477C41.6882 41.9183 41.8976 42.0811 42.1069 42.2439C42.3163 42.4068 42.5257 42.5696 42.7273 42.7402C42.8514 42.8643 42.9134 42.8333 43.0685 42.7402C43.3787 42.4611 43.7199 42.1819 44.0611 41.9338C44.5573 41.5615 44.7124 41.5926 45.0846 41.9958C46.5115 43.5157 46.0152 45.5628 44.2472 46.4313C43.0065 47.0517 41.3935 46.7725 40.5561 45.6869C40.1218 45.1286 39.5635 44.8184 38.9432 44.5703C37.8575 44.136 36.7099 43.8569 35.5002 43.8258C34.8488 43.8258 34.7868 43.7328 34.9729 43.1124C35.2831 42.0268 34.8178 41.0343 33.6702 40.9102C32.9567 40.8171 32.3674 41.1583 31.8711 41.5926C31.1817 42.1921 30.7819 43.0234 30.3919 43.8345L30.3513 43.9189C30.2892 44.074 30.3513 44.167 30.5064 44.1981C30.9238 44.3208 31.3218 44.463 31.7311 44.6093C31.8388 44.6478 31.9474 44.6866 32.0572 44.7253C33.7012 45.3767 35.221 46.1522 36.4307 47.4549C36.7719 47.7961 37.0201 48.1993 37.1751 48.6336C37.3612 49.1298 37.0821 49.5641 36.7719 49.9363C36.4928 50.2775 36.1205 50.4636 35.7173 50.6497C35.5312 50.7428 35.4071 50.6497 35.3451 50.4636C35.0659 49.1919 34.3836 48.1373 33.484 47.2378C32.5845 46.3383 31.5299 45.5938 30.3202 45.1596H30.1962C30.1614 45.1596 30.1243 45.1474 30.0874 45.1354C29.9926 45.1044 29.8997 45.074 29.855 45.2527C29.7996 45.4188 29.8926 45.4861 30.0015 45.5648C30.0145 45.5743 30.0278 45.5839 30.0411 45.5938C31.7781 46.5864 33.1118 47.9202 33.7012 49.8743C34.0424 50.9909 33.329 52.2316 32.1813 52.3867C31.9748 52.4125 31.9831 52.3094 31.9917 52.2026L31.9936 52.1783L31.9945 52.1637L31.9951 52.1471L31.9952 52.1386C31.7471 50.3085 31.2818 48.5405 30.1962 47.0207C30.1186 46.9121 30.0333 46.8113 29.948 46.7105C29.8627 46.6097 29.7774 46.5089 29.6999 46.4003C29.6999 46.3693 29.6379 46.3383 29.5448 46.3072C29.4518 46.6174 29.4828 46.8656 29.5448 47.1757C30.0101 48.7266 30.4443 50.2775 30.5374 51.9214C30.5994 52.6969 30.1962 53.1311 29.6689 53.5654C29.6223 53.5964 29.5836 53.6274 29.5448 53.6584C29.506 53.6894 29.4673 53.7205 29.4207 53.7515C29.0175 53.9996 28.6453 54.1547 28.149 53.8135C26.9083 52.976 26.8153 52.4487 26.9703 51.239C27.1254 50.1224 27.3736 49.0368 27.6527 47.9512C27.6802 47.8596 27.705 47.7708 27.7294 47.6831C27.7878 47.4736 27.8445 47.2702 27.9319 47.0517C28.0249 46.8035 28.0249 46.5864 27.8699 46.3383C27.4046 46.7105 27.1254 47.1757 26.8463 47.672C26.0708 49.0678 25.6056 50.5567 25.4815 52.1696C25.4815 52.1775 25.4819 52.1858 25.4826 52.1944C25.4833 52.2035 25.4843 52.213 25.4853 52.2227C25.4946 52.3119 25.5057 52.4177 25.3264 52.4177C24.4579 52.3867 23.4343 51.084 23.6204 50.2155C23.8065 49.378 24.2098 48.6336 24.7061 47.9512C25.4505 46.9276 26.381 46.1211 27.4976 45.5318C27.6217 45.4698 27.6837 45.4077 27.5907 45.2527C27.5287 45.1286 27.4666 45.0976 27.3115 45.1286C26.5981 45.3147 25.9468 45.6869 25.3264 46.0901C24.3028 46.8345 23.4033 47.703 22.783 48.8197C22.5038 49.316 22.2557 49.8122 22.1626 50.3706C22.1316 50.6497 21.9765 50.7738 21.7284 50.6187C21.2941 50.4016 20.8599 50.1844 20.5807 49.7502C20.2395 49.2539 20.1775 48.6646 20.5187 48.1683C21.108 47.2378 21.9145 46.5554 22.845 45.9971C24.0547 45.2526 25.3264 44.6323 26.6912 44.2911C27.1565 44.167 27.2185 44.043 27.0014 43.6087C26.5671 42.6782 26.0398 41.7787 25.1403 41.1893C24.4269 40.7551 23.4033 40.662 22.814 41.3444C22.3487 41.8717 22.4108 42.4921 22.5658 43.1124C22.6899 43.6707 22.6279 43.7638 22.0696 43.7948C20.6117 43.7948 19.247 44.198 17.9442 44.8184C17.603 44.9735 17.634 45.1596 17.8822 45.3767C17.9704 45.4551 18.0617 45.5335 18.1541 45.6129C18.3542 45.7847 18.5597 45.9612 18.7507 46.1522C19.1539 46.5244 19.1849 46.7725 18.9368 47.0207C18.6886 47.2998 18.3785 47.2688 18.0063 46.9586C17.6961 46.6795 17.3859 46.4003 17.1067 46.0901C16.9516 45.935 16.7966 45.873 16.5794 45.9661C15.6179 46.3073 14.8424 46.0591 14.2531 45.2527C13.9119 44.7874 13.9119 44.2911 14.129 43.7948C14.2221 43.5467 14.1911 43.4226 14.036 43.2675C13.3846 42.6472 12.7255 42.0268 12.0663 41.4064C11.4072 40.7861 10.7481 40.1658 10.0967 39.5454L9.72454 39.1732C9.4764 38.894 9.25928 38.77 8.88706 39.0181C8.6079 39.2042 8.32874 39.0181 8.14264 38.801C7.98755 38.6459 7.86348 38.6459 7.67737 38.7079C6.90193 39.0181 5.63021 38.3667 5.41309 37.2811L5.63021 37.3742Z" fill="white"/>
<path d="M5.39188 25.4661C5.09082 25.3495 4.78863 25.2325 4.48258 25.1232V25.1542C4.14139 27.1704 5.38209 28.5041 7.08806 28.9384C8.3908 29.2486 9.72456 29.0935 11.0273 28.8763C11.2297 28.8426 11.4336 28.8103 11.6383 28.778L11.6393 28.7778C12.3753 28.6613 13.1221 28.5431 13.8499 28.349C14.0836 28.2789 14.1412 28.4378 14.1952 28.5867C14.2129 28.6354 14.2302 28.683 14.2531 28.7213C14.3462 28.8453 14.3152 28.9694 14.1601 29.0314C12.9504 29.5897 11.7097 30.024 10.3759 30.1791C9.22828 30.3342 8.04961 30.4272 6.87094 30.3652C6.65381 30.3342 6.59178 30.4272 6.59178 30.6443C6.68483 31.4508 7.08806 32.0712 7.80147 32.4434C8.76301 32.9397 9.75557 32.9707 10.7792 32.7225C12.3611 32.3503 13.7879 31.6369 15.1216 30.6754C15.1339 30.668 15.1462 30.6604 15.1585 30.6528C15.3015 30.5648 15.4466 30.4755 15.6179 30.6754L15.644 30.7076C15.7618 30.8524 15.8842 31.0027 15.711 31.2337C15.3387 31.699 14.9355 32.1332 14.4703 32.5054C13.2296 33.4359 11.8338 34.0253 10.3139 34.3044C9.91066 34.3665 10.0347 34.5216 10.1898 34.7077C10.531 35.1109 10.9342 35.4211 11.4615 35.5451C12.5782 35.8243 13.6018 35.5451 14.5633 34.9248C15.6179 34.2424 16.3623 33.2498 17.0757 32.2573C17.2929 31.9781 17.4169 32.0091 17.6961 32.1022C17.9656 32.21 17.9073 32.3646 17.8467 32.5254C17.8375 32.5496 17.8283 32.574 17.8202 32.5985C17.7271 32.9707 17.572 33.3429 17.3859 33.6841C16.6725 34.9868 15.6799 36.0104 14.4082 36.7548C14.1911 36.9099 14.1291 37.096 14.4082 37.2821C15.1216 37.7474 15.8971 37.8404 16.7035 37.5613C17.7891 37.1891 18.3785 36.3206 18.8127 35.328C19.1539 34.5216 19.4021 33.6531 19.5572 32.7535C19.5882 32.4744 19.6812 32.4434 19.9294 32.4744C20.4567 32.5364 20.9529 32.6605 21.4182 32.8776C22.1006 33.1878 22.6279 33.6531 22.9381 34.3355C22.9454 34.3574 22.9493 34.3863 22.9533 34.4168C22.9665 34.5155 22.982 34.631 23.1242 34.5836C23.1995 34.5585 23.1935 34.452 23.1885 34.363C23.1873 34.3421 23.1862 34.3221 23.1862 34.3044V30.086C23.1862 29.8379 23.1552 29.7448 22.845 29.8069C21.9145 30.024 20.9529 30.2101 19.9604 29.962C18.9988 29.7138 17.8202 28.8453 17.572 27.7907C17.3549 26.7671 17.479 25.8056 18.2234 24.9991C18.5646 24.6269 18.5336 24.4718 18.1303 24.2237C16.7035 23.3242 15.4628 22.2076 14.2842 21.0289C13.2606 20.0053 12.299 18.8887 11.3995 17.741C10.1588 16.1591 8.98014 14.5462 7.92554 12.8712C7.42925 12.0958 7.30519 12.0648 6.8089 12.8402C5.69227 14.5462 5.94041 16.5003 6.90196 18.0822C7.73751 19.494 9.08158 20.4241 10.4121 21.3447C10.5137 21.4151 10.6159 21.4858 10.7171 21.5562C11.4926 22.0835 12.299 22.5798 13.1055 23.045C13.3441 23.1969 13.2793 23.3791 13.2187 23.5492C13.1927 23.6223 13.1675 23.6932 13.1675 23.7584C13.1459 23.9316 13.0487 23.8933 12.9499 23.8544C12.907 23.8375 12.8638 23.8205 12.8263 23.8205C12.6742 23.8205 12.5336 23.7621 12.3905 23.7027C12.3003 23.6653 12.2088 23.6273 12.1129 23.6033C10.6241 23.2311 9.29031 22.5487 8.01859 21.7423C6.8089 20.9668 5.66125 20.0673 4.6997 18.9817C4.42054 18.6405 4.29647 18.7646 4.20342 19.1058C3.76917 20.6257 4.01732 22.0215 5.07191 23.2001C6.11119 24.3798 7.55745 24.7456 8.97303 25.1036C9.12065 25.1409 9.26793 25.1782 9.41438 25.2163C10.167 25.4105 10.9386 25.5287 11.6994 25.6453C11.9104 25.6776 12.1213 25.7099 12.33 25.7436C12.4236 25.754 12.5207 25.7574 12.6189 25.7609C12.8137 25.7677 13.013 25.7748 13.1985 25.8366C13.4361 25.9014 13.4331 26.0714 13.4303 26.2315C13.429 26.3014 13.4278 26.3694 13.4467 26.4259C13.5087 26.55 13.2606 26.55 13.1365 26.55C12.9297 26.5328 12.7229 26.5634 12.5162 26.5941C12.3507 26.6186 12.1853 26.6431 12.0199 26.6431C10.3449 26.6741 8.70098 26.488 7.05704 26.0537C6.49463 25.893 5.94513 25.6803 5.39188 25.4661Z" fill="white"/>
<path d="M27.4669 15.8799C27.2498 16.9965 26.5984 17.7099 25.7609 18.2683C25.6233 18.36 25.5535 18.4065 25.5479 18.4598C25.5421 18.5147 25.6041 18.5767 25.7299 18.7025C26.9396 19.9742 27.7461 21.4321 28.2734 23.107C28.5835 24.0375 28.7696 24.9681 28.9558 25.9916C29.1392 25.6655 29.1887 25.3259 29.2363 24.9994C29.2611 24.8291 29.2854 24.6623 29.328 24.5028C29.8553 22.3316 30.6927 20.3464 32.3057 18.7025C32.5272 18.4533 32.452 18.4018 32.2789 18.2833C32.2582 18.2691 32.2358 18.2538 32.2126 18.2372C31.4682 17.741 30.8788 17.0896 30.5997 16.2211C30.5997 16.1591 30.5997 16.066 30.5687 16.004C30.5687 16.004 30.5687 15.9419 30.5997 15.9109C32.0503 16.3861 33.5211 16.3572 34.9958 16.3281C35.3499 16.3211 35.7044 16.3142 36.0588 16.3142C37.1754 16.3142 38.3231 16.3141 39.4087 16.6864C40.5874 17.0586 41.0836 18.4854 40.4013 19.478C40.3392 19.571 40.2462 19.6951 40.1221 19.478C39.5948 18.6405 38.7263 18.6405 37.8888 18.7645C35.9037 19.0437 34.601 20.2224 33.6394 21.8973C33.1121 22.8279 32.833 23.7894 32.833 24.844C32.833 25.9606 33.1431 26.9532 34.0426 27.7286C34.0737 27.7597 34.1047 27.8217 34.1357 27.9148H23.9309C23.8717 27.7669 24.01 27.6754 24.1037 27.6134L24.117 27.6046C24.9855 26.7671 25.2336 25.7125 25.1716 24.5648C25.0786 23.014 24.4272 21.7422 23.4346 20.5946C22.5351 19.571 21.3875 18.8886 20.0227 18.7335C19.5264 18.6715 19.0301 18.7335 18.5648 18.8886C18.2857 18.9817 18.0375 19.1678 17.9135 19.4469C17.8204 19.6951 17.7274 19.633 17.6343 19.4469C16.9209 18.0822 17.3552 16.9345 18.906 16.5623C19.8056 16.3452 20.7051 16.3142 21.6356 16.2831C21.9526 16.2831 22.2697 16.2862 22.5867 16.2893C23.6965 16.3 24.8063 16.3107 25.916 16.1901C26.4123 16.128 26.9086 16.004 27.4669 15.8179V15.8799Z" fill="white"/>
<path fill-rule="evenodd" clip-rule="evenodd" d="M26.5061 34.2418C26.411 34.3686 26.3627 34.5242 26.3146 34.6792C26.2215 34.9791 26.1291 35.2767 25.6997 35.3585C25.8547 34.9552 25.7307 34.6451 25.5446 34.3349C25.3585 34.0247 25.2344 33.6835 25.5446 33.3423C25.7307 33.1562 26.382 33.1252 26.6302 33.3423C26.8473 33.5594 27.0334 33.5594 27.2505 33.3733C27.3436 33.3113 27.4677 33.2803 27.5917 33.2803C27.7468 33.2803 27.8399 33.2182 27.8089 33.0321C27.8089 32.877 27.7778 32.722 27.5607 32.753C27.1265 32.753 26.7542 32.6289 26.382 32.4428C26.0098 32.2567 25.6997 31.9775 25.6997 31.5743C25.6997 31.2331 25.9788 30.9229 26.351 30.7989C26.4131 30.7989 26.5061 30.7368 26.5371 30.7058C26.6153 30.6406 26.7264 30.6138 26.8312 30.5885C26.9758 30.5536 27.1085 30.5215 27.1265 30.3956C27.1265 30.1962 27.0473 29.9968 26.9682 29.7974C26.9366 29.7177 26.9049 29.6379 26.8783 29.5582C26.7853 29.248 26.6612 28.9378 26.5371 28.6276C26.5336 28.6169 26.5296 28.6058 26.5255 28.5944C26.4943 28.5072 26.4584 28.4069 26.5681 28.3795C26.6922 28.3175 26.7543 28.4415 26.7853 28.5346C26.8628 28.7361 26.948 28.9298 27.0333 29.1235C27.1186 29.3174 27.204 29.5116 27.2816 29.7133C27.4229 30.1115 27.5642 30.5112 27.7058 30.9116C28.2479 32.4445 28.7941 33.9888 29.3597 35.5135C29.794 36.6922 30.2282 37.8399 30.6935 39.0185C30.8486 39.4218 30.7555 39.5458 30.3213 39.6699C29.2667 39.918 28.2431 39.9491 27.2505 39.4838C26.8163 39.2667 26.4441 39.0806 25.9478 39.0806C25.6066 39.0806 25.2964 38.8014 25.2034 38.4292C25.1103 38.057 25.2034 37.7158 25.5135 37.3746V37.8089C25.5135 37.9639 25.6376 38.026 25.7617 38.026C25.8703 38.026 25.8724 37.9499 25.8746 37.8724C25.8755 37.8392 25.8765 37.8057 25.8858 37.7778C25.9478 36.9714 26.1649 36.1959 26.5992 35.5135C26.7705 35.2279 26.6964 34.9657 26.6208 34.6981C26.5733 34.5298 26.5252 34.3594 26.5371 34.1798L26.5061 34.2418ZM27.8709 37.3436C27.8466 37.2099 27.808 37.0857 27.77 36.9636C27.7111 36.7741 27.6538 36.5896 27.6538 36.382C27.6538 36.3319 27.6605 36.275 27.6674 36.2174C27.6859 36.0613 27.705 35.9001 27.5917 35.8547C27.4614 35.7896 27.3766 35.9222 27.295 36.0502C27.26 36.1049 27.2257 36.1588 27.1885 36.1959C26.7853 36.5992 26.4131 37.0334 26.32 37.7468C26.8473 37.4366 27.3436 37.3436 27.9019 37.3436H27.8709Z" fill="white"/>
<path d="M29.7829 31.3057C30.3373 30.7677 31.011 30.7688 31.6544 30.8607C32.1196 30.9228 32.3988 31.7292 32.1817 32.2565C32.0886 32.4737 31.9645 32.6598 31.8405 32.8459C31.7474 32.97 31.6233 33.032 31.4372 33.001C31.2511 32.9389 31.2511 32.7838 31.3132 32.6287V32.5977C31.3132 32.5512 31.319 32.5027 31.3248 32.4543C31.3422 32.3089 31.3597 32.1635 31.2201 32.0704C31.1581 32.0084 31.065 32.0704 31.034 32.1325C30.8789 32.3186 30.8479 32.5047 30.9409 32.7218C30.9514 32.7533 30.9619 32.7838 30.9722 32.8139C31.0231 32.9621 31.0703 33.0997 31.096 33.2801C31.1581 33.7454 31.2511 34.0866 31.9025 34.0866C32.5539 34.0866 32.9261 34.738 32.864 35.3893C32.864 35.4824 32.833 35.6064 32.6779 35.6375C32.5849 35.1102 32.3057 34.769 31.7784 34.6759C31.1581 34.5518 30.7548 34.9241 30.9409 35.4824C31.0457 35.8317 31.1014 36.1908 31.1576 36.5543C31.2013 36.8363 31.2454 37.1209 31.3132 37.4055C31.4433 37.3664 31.5571 37.3 31.6705 37.2339C31.8274 37.1424 31.9837 37.0513 32.1817 37.0333C32.6469 37.0022 32.864 37.1883 32.771 37.6536C32.6159 38.4291 32.0266 38.8943 31.4062 39.2975C31.3132 39.3596 31.1581 39.3906 31.096 39.1735C30.9166 38.6532 30.7269 38.1434 30.5387 37.6379C30.4017 37.2697 30.2652 36.9029 30.1345 36.537C29.7002 35.2653 29.235 34.0245 28.7387 32.7528C28.6647 32.5492 28.5934 32.3456 28.5224 32.1428C28.3555 31.6661 28.1901 31.1936 27.9943 30.7367C27.8702 30.4885 28.0563 30.4265 28.2424 30.3955C28.5216 30.3955 28.7077 30.3955 28.7077 29.9923C28.7077 29.8061 28.8628 29.558 29.1419 29.558C29.1752 29.558 29.2105 29.556 29.2463 29.554C29.4109 29.5447 29.5873 29.5348 29.6382 29.7131C29.7002 29.9302 29.7002 30.1784 29.4831 30.3645C29.266 30.5196 29.297 30.7057 29.4831 30.8918C29.6153 30.9975 29.7024 31.1483 29.7829 31.3057Z" fill="white"/>
<path d="M45.1457 16.1895C44.8665 16.0034 44.5874 15.8483 44.2772 15.7552C43.6878 15.6001 43.4707 15.7552 43.4707 16.3446V16.6858C42.7883 16.4997 42.5402 15.7863 42.9434 15.1659C43.0765 14.944 43.2573 14.7539 43.4402 14.5615C43.513 14.4849 43.5862 14.4079 43.6568 14.3284L43.7103 14.2698C44.0049 13.9476 44.3082 13.6159 44.3082 13.1187C44.3082 12.4674 43.967 11.9711 43.3156 11.754C43.0987 11.692 42.8812 11.6298 42.6953 11.5679C42.4471 11.5058 42.199 11.4438 41.9509 11.5679C41.6946 11.696 41.7618 11.8535 41.8285 12.01C41.8587 12.0809 41.8888 12.1516 41.8888 12.2192C41.8888 13.615 41.2685 14.4215 40.0278 14.8557C39.9682 14.8756 39.9087 14.8982 39.8489 14.921C39.6282 15.005 39.4033 15.0906 39.1593 15.0418C39.0352 15.0418 38.9111 15.0418 38.9111 14.8867C38.9111 14.7395 38.9888 14.7282 39.0827 14.7145C39.1075 14.7109 39.1334 14.7071 39.1593 14.7006C40.369 14.5145 40.9583 13.9252 41.1134 12.8706C41.2064 12.3123 40.9893 11.816 40.6791 11.3817L40.6671 11.3651C40.2753 10.8227 40.2489 10.7862 40.6481 10.1721C40.9273 9.7068 41.3305 9.61374 41.7648 9.92392C41.9818 10.079 42.1679 10.265 42.354 10.4511C42.6331 10.7302 42.9125 11.0096 43.1916 11.3197C43.6032 11.7556 44.1283 11.8512 44.6487 11.9459C44.7949 11.9725 44.9408 11.9991 45.0836 12.0331H45.3008C46.3554 12.2502 46.3864 12.9016 45.8281 13.4909C45.3628 13.9872 44.9286 14.5145 45.0216 15.29C45.044 15.4918 45.0827 15.6937 45.1258 15.919C45.1423 16.0053 45.1595 16.095 45.1767 16.1895H45.1457Z" fill="white"/>
<path d="M14.472 16.6969L14.47 16.748L14.4079 16.7169C14.4298 16.7108 14.4512 16.7041 14.472 16.6969Z" fill="white"/>
<path d="M14.472 16.6969C14.5178 15.3887 13.9631 15.605 13.1362 15.9725C13.0454 16.0179 12.9712 16.0633 12.8771 16.1209C12.8427 16.142 12.8056 16.1647 12.764 16.1896C12.764 15.9925 12.7918 15.801 12.8192 15.6127C12.8564 15.3564 12.8928 15.1062 12.857 14.8559C12.795 14.3596 12.5469 14.0184 12.2367 13.7082C12.0816 13.5531 11.9575 13.367 11.8645 13.1809C11.6163 12.6846 11.8024 12.3124 12.3297 12.1573C12.702 12.0643 13.0742 11.9712 13.4464 11.9402C14.2528 11.9092 14.7491 11.3819 15.2454 10.8236C15.4935 10.5444 15.7727 10.2653 16.0519 10.0171C16.3931 9.73797 16.9204 9.73797 17.1375 9.98611C17.5407 10.4204 17.6338 10.8856 17.3546 11.2578C16.5171 12.2814 16.6722 13.5531 17.4787 14.2355C17.8199 14.5147 18.2231 14.7008 18.6884 14.7318C18.7015 14.7318 18.7157 14.7315 18.7306 14.7311C18.8557 14.728 19.0263 14.7238 18.9985 14.9179C18.9985 15.1151 18.8614 15.0968 18.7428 15.081C18.7122 15.0769 18.6828 15.073 18.6573 15.073C17.3856 14.9179 15.9898 14.0804 16.0208 12.5296V12.0953C16.0208 11.537 15.9278 11.4439 15.3695 11.568C15.2454 11.599 15.1136 11.63 14.9818 11.6611C14.85 11.6921 14.7181 11.7231 14.594 11.7541C13.4774 12.1263 13.1982 13.2119 13.9737 14.0804C14.0978 14.22 14.2296 14.3596 14.3614 14.4992C14.4932 14.6388 14.6251 14.7783 14.7491 14.9179C15.2917 15.581 15.1898 16.4492 14.472 16.6969Z" fill="white"/>
<path d="M43.9061 40.5702C43.9681 40.5082 44.0302 40.3841 44.0302 40.3841L43.9681 40.4152C43.9526 40.3841 43.9294 40.3609 43.91 40.3415C43.8906 40.3221 43.8751 40.3066 43.8751 40.2911L43.0376 39.3606C42.9445 39.2365 42.8205 39.3295 42.8205 39.3606C42.6576 39.6164 42.4424 39.82 42.2273 40.0236C42.1556 40.0913 42.0837 40.1593 42.014 40.229C41.952 40.3221 41.8899 40.4152 42.014 40.5392C42.1339 40.6373 42.2422 40.7506 42.3485 40.8618C42.5448 41.0672 42.7341 41.2652 42.9756 41.3457C43.1288 41.384 43.2821 41.2093 43.4427 41.0262C43.5421 40.9129 43.6443 40.7965 43.751 40.7253C43.813 40.6943 43.8751 40.6323 43.9061 40.5702Z" fill="white"/>
<path d="M36.2756 8.93115C36.2756 8.93115 36.2883 8.94384 36.305 8.96347C35.9644 9.24239 35.624 9.58315 35.5002 9.98575C35.4588 10.0891 35.638 10.2753 35.8172 10.4614C35.9068 10.5544 35.9964 10.6475 36.0585 10.7302C36.0585 10.7665 36.0798 10.7922 36.0974 10.8135C36.1099 10.8286 36.1205 10.8414 36.1205 10.8543C36.2136 11.0093 36.3066 11.0404 36.3997 10.8543C36.4744 10.7173 36.5991 10.6003 36.7196 10.4872C36.8993 10.3187 37.0696 10.1589 37.051 9.95474C37.0298 9.74245 36.8342 9.54468 36.6333 9.34156C36.5407 9.24793 36.4469 9.15309 36.3686 9.05523C36.3516 9.02124 36.3253 8.98725 36.305 8.96347L36.3066 8.96218L36.2756 8.93115Z" fill="white"/>
<path d="M20.9525 10.0794C21.1696 10.3586 21.4178 10.6688 21.6659 10.9479V10.9789C21.9139 10.6689 22.131 10.4208 22.348 10.1728C22.3587 10.1567 22.3716 10.1403 22.3844 10.1239C22.4458 10.0454 22.5129 9.95954 22.4103 9.83128C22.3307 9.74175 22.2543 9.62989 22.1781 9.51821C22.0165 9.28166 21.8555 9.0459 21.6659 9.02482C21.4505 9.0009 21.2721 9.29076 21.1021 9.56691C21.0518 9.64873 21.0021 9.72938 20.9525 9.80027V9.83128C20.8284 9.89331 20.8905 10.0174 20.9525 10.0794Z" fill="white"/>
<path d="M38.2293 20.8115C37.3918 20.3153 36.6164 20.0051 35.5928 20.3773C36.0458 19.896 36.5246 19.6731 37.0057 19.4492C37.0517 19.4278 37.0977 19.4064 37.1437 19.3847C37.2367 19.3537 37.3608 19.3847 37.4849 19.4468C37.8881 19.7879 38.0432 20.2532 38.2293 20.8115Z" fill="white"/>
<path d="M19.8682 20.7184C20.6126 20.2842 21.357 20.005 22.3496 20.3773C21.8223 19.881 21.326 19.6328 20.7987 19.4157C20.7367 19.3537 20.6126 19.3847 20.5506 19.4157C20.1783 19.6018 19.8682 20.2532 19.8682 20.7184Z" fill="white"/>
</svg>
