<svg xmlns="http://www.w3.org/2000/svg" width="58" height="58" fill="none" viewBox="0 0 58 58">
  <path fill="#fff" d="M45.734 1.04H12.266C7.687 1.04 4 4.688 4 9.267v40.386a8.249 8.249 0 0 0 8.266 8.266h33.468A8.248 8.248 0 0 0 54 49.652V9.266A8.248 8.248 0 0 0 45.734 1v.04ZM9.146 49.896c1.337-5.915 5.835-12.317 14.303-14.83-6.888-3.443-8.468-10.737-6.888-15.761 1.62-5.105 6.645-9.279 12.925-9.117 5.349.162 10.414 3.93 11.994 9.279 1.62 5.43-.365 12.277-6.97 15.6 7.456 2.228 12.845 7.9 14.344 14.789a3.365 3.365 0 0 1-3.282 4.133H12.387c-2.147 0-3.727-2.026-3.282-4.133l.04.04Z"/>
</svg>
