<svg xmlns="http://www.w3.org/2000/svg" id="Layer_1" data-name="Layer 1" viewBox="0 0 229.55 255.45">
  <defs>
    <style>
      .cls-1{fill:#f57f20}
    </style>
  </defs>
  <g id="tab_right" data-name="tab right">
    <path d="M109.17 113.94C123.88 60.71 155.34 8.7 218.95 2.99c3.43-.31 6.97-.47 10.59-.5v250.45H0c68.35 0 93.58-82.57 109.17-138.99Z" class="cls-1"/>
    <path fill="none" d="M27.78 250.43c51.73-19.77 72.1-93.49 83.8-135.83C125.33 64.86 156.96 5.63 229.54 4.98v245.44H27.78Z"/>
    <path d="M106.77 113.28C119.18 68.37 145.8 15.97 202.8 3c8.26-1.88 17.16-2.92 26.75-3v5c-72.58.64-104.21 59.88-117.96 109.62-11.7 42.34-32.08 116.05-83.8 135.83h201.76v5H.01v-5c68.85 0 93.51-89.22 106.77-137.16h-.01Z" class="cls-1"/>
  </g>
</svg>
