<svg xmlns="http://www.w3.org/2000/svg" id="Layer_1" data-name="Layer 1" viewBox="0 0 229.55 255.45">
  <defs>
    <style>
      .cls-1{fill:#fff}.cls-2{fill:#f57f20}.cls-3{fill:none}
    </style>
  </defs>
  <g id="tab_right" data-name="tab right">
    <path d="M120.38 113.94C105.67 60.71 74.21 8.7 10.6 2.99c-3.43-.31-6.97-.47-10.59-.5v250.45h229.54c-68.35 0-93.58-82.57-109.17-138.99Z" class="cls-1"/>
    <path d="M201.77 250.43c-51.73-19.77-72.1-93.49-83.8-135.83C104.22 64.86 72.59 5.63.01 4.98v245.44h201.76Z" class="cls-3"/>
    <path d="M122.78 113.28C110.37 68.37 83.75 15.97 26.75 3 18.49 1.12 9.59.08 0 0v5c72.58.64 104.21 59.88 117.96 109.62 11.7 42.34 32.08 116.05 83.8 135.83H0v5h229.54v-5c-68.85 0-93.51-89.22-106.77-137.16h.01Z" class="cls-2"/>
  </g>
  <g id="tab_middle" data-name="tab middle">
    <path d="M-1.18 2.47h-456.13c-4.69 0-9.35.03-13.99.08v250.38H.01V2.49h-1.19Z" class="cls-1"/>
    <path d="M-3.09 4.97h-454.22c-4.69 0-9.35.03-13.99.08v245.38H.01V4.99c-.4 0-.79-.02-1.19-.02h-1.91Z" class="cls-3"/>
    <path d="M-457.31 4.97H-1.18c.4 0 .79.01 1.19.02v-5c-.4 0-.79-.02-1.19-.02h-456.13c-4.69 0-9.34.03-13.99.08v5c4.65-.04 9.3-.08 13.99-.08ZM-3.09 250.43h-468.22v5H0v-5h-3.09Z" class="cls-2"/>
  </g>
</svg>
