<?xml version="1.0" encoding="UTF-8"?>
<svg id="Layer_1" data-name="Layer 1" xmlns="http://www.w3.org/2000/svg" viewBox="0 0 471.32 255.46">
  <defs>
    <style>
      .cls-1 {
        fill: #fff;
      }

      .cls-2 {
        fill: #f57f20;
      }

      .cls-3 {
        fill: none;
      }
    </style>
  </defs>
  <g id="tab_right" data-name="tab right">
    <path class="cls-2" d="m594.09,113.31c-12.41-44.91-39.03-97.31-96.03-110.28-8.26-1.88-17.16-2.92-26.75-3v5c72.58.64,104.21,59.88,117.96,109.62,11.7,42.34,32.08,116.05,83.8,135.83h-201.76v5h229.54v-5c-68.85,0-93.51-89.22-106.77-137.16h.01Z"/>
  </g>
  <g id="tab_middle" data-name="tab middle">
    <path class="cls-1" d="m470.13,2.5H14c-4.69,0-9.35.03-13.99.08v250.38h471.31V2.52c-.4,0-.79,0-1.19,0h0Z"/>
    <path class="cls-3" d="m468.22,5H14c-4.69,0-9.35.03-13.99.08v245.38h471.31V5.02c-.4,0-.79-.02-1.19-.02h-1.91Z"/>
    <path class="cls-2" d="m14,5h456.13c.4,0,.79.01,1.19.02V.02c-.4,0-.79-.02-1.19-.02H14C9.31,0,4.66.03.01.08v5c4.65-.04,9.3-.08,13.99-.08Z"/>
    <path class="cls-2" d="m468.22,250.46H0v5h471.31v-5h-3.09Z"/>
  </g>
</svg>