<svg xmlns="http://www.w3.org/2000/svg" xml:space="preserve" viewBox="0 0 1451.3 1451.3">
  <path fill="#fff" d="m433.1 844.5 7.9 7.3-.6.1L724 1126.7l287.6-279.4 17.4-17.1v-.6c67.4-72.7 104.9-166.8 105.5-264.6.5-97.7-36-192.2-102.8-265.5L723.7 0 433.1 281.4c-77 74.6-120.3 175.9-120.3 281.4s43.3 207 120.3 281.7zm567.4-191.1c-14.4 41.4-38.4 78.9-70 109.5h.3l-206.3 200h-.1l-81.7-79L1013 525.4c6 42.9 1.8 86.9-12.5 128zm-70.1-290c13.5 13.2 25.8 27.5 36.4 43.1h-.3L558.2 802l-33.5-32.4-1-1c-16.2-14.7-30.6-31.2-43.1-49.2l408.7-395.7 41.1 39.7zM454.1 455c14.8-34.6 36.4-65.6 63.3-91.5l206.5-199.8 81 78.3-370.4 358.5c-1.7-12.4-2.4-24.8-2.4-37.4-.2-37.1 7.3-74 22-108.1zM1132 817h-4.8c-15.7 65.4-48.1 125.3-93.9 174.4v.6l-17.4 17.1-287.8 279.2-283.9-274.9c-2.7-2.4-5.3-4.8-7.9-7.3A388.94 388.94 0 0 1 327.5 817h-4.6c-11.9 63.2-7.9 128.5 12 189.6 21.1 65.2 58.9 123.6 109.5 169.9L728 1451.3l287.8-279.2 17.4-17.1v-.6c41.6-44.7 72.5-98.8 89.7-157.5 17.2-58.5 20.1-120.1 9.1-179.9z"/>
</svg>
