<svg xmlns="http://www.w3.org/2000/svg" width="43" height="14" fill="none" viewBox="0 0 43 14">
  <path fill="#fff" d="M42.244 10.602v2.783c-.41.024-.825.036-1.247.036-1.145 0-2.024-.271-2.638-.813-.615-.554-1-1.386-1.157-2.494-.145-.663-.295-1.048-.452-1.157-.144-.12-.614-.192-1.41-.216h-2.8v4.535h-3.542V.627h8.023c1.65 0 2.916.343 3.795 1.03.88.687 1.32 1.71 1.32 3.072 0 1.626-.778 2.705-2.332 3.235v.09c.458.313.73.74.813 1.283.12.843.663 1.265 1.627 1.265ZM32.54 3.41v2.584h4.481c.494 0 .88-.109 1.157-.325.277-.23.416-.548.416-.958 0-.41-.139-.729-.416-.958-.277-.229-.663-.343-1.157-.343H32.54Zm-5.525 6.397c0 1.18-.373 2.054-1.12 2.62-.735.566-1.868.85-3.398.85h-8.005V.626h8.005c2.964 0 4.446 1.102 4.446 3.307 0 1.41-.669 2.361-2.006 2.855v.072c1.385.518 2.078 1.5 2.078 2.946Zm-4.879-6.361h-4.102v2.168h3.94c.433 0 .776-.096 1.03-.289a.927.927 0 0 0 .379-.777c0-.735-.416-1.102-1.247-1.102Zm1.337 5.927c0-.41-.138-.729-.415-.958-.265-.229-.627-.343-1.085-.343h-3.957v2.403h4.12c.892 0 1.337-.367 1.337-1.102ZM8.008 8.74c-.867.35-1.523.65-1.97.904-.445.253-.794.536-1.047.849h7.138v2.783H.889v-1.139c.06-1.011.343-1.855.849-2.53.53-.698 1.132-1.24 1.807-1.626a27.58 27.58 0 0 1 2.62-1.3c.663-.29 1.18-.53 1.554-.724.856-.433 1.283-.933 1.283-1.5 0-.3-.192-.536-.578-.704-.373-.181-.885-.271-1.536-.271-.71 0-1.265.132-1.662.397a1.212 1.212 0 0 0-.597 1.084H1.07c0-1.421.518-2.523 1.554-3.306C3.672.86 5.13.464 6.997.464c1.722 0 3.072.343 4.047 1.03.988.675 1.482 1.608 1.482 2.8 0 .796-.21 1.477-.632 2.043-.386.53-.898.976-1.536 1.337-.603.325-1.386.68-2.35 1.066Z"/>
</svg>
