<svg xmlns="http://www.w3.org/2000/svg" xmlns:xlink="http://www.w3.org/1999/xlink" width="620" height="246" fill="none" viewBox="0 0 620 246">
  <defs>
    <path id="c" fill="#fff" d="M0 0h620v246H0z"/>
  </defs>
  <g clip-path="url(#a)">
    <g clip-path="url(#b)">
      <path stroke="#fff" stroke-miterlimit="10" stroke-width="1.81" d="M682.98 173.92 139.3 486.94l-297.06-164.9L385.92 9.02l297.06 164.9Zm-568.9-8.39 297.06 164.9"/>
      <path stroke="#fff" stroke-miterlimit="10" stroke-width="1.81" d="M265.566 275.266c27.058-2.882 47.69-17.448 46.083-32.534-1.607-15.086-24.844-24.979-51.902-22.097-27.058 2.882-47.69 17.448-46.084 32.534 1.607 15.086 24.845 24.979 51.903 22.097ZM653.78 157.72 622.9 175.5c-73.68 42.42-186.84 47.15-252.74 10.56C304.25 149.47 310.55 85.43 384.23 43l30.88-17.78"/>
      <path stroke="#fff" stroke-miterlimit="10" stroke-width="1.81" d="m569.219 110.77-125.42 72.21c-21.47 12.36-54.44 13.74-73.64 3.08-19.2-10.66-17.37-29.32 4.1-41.68l125.42-72.21M374.26 144.38l69.54 38.6"/>
      <path stroke="#000" stroke-miterlimit="10" stroke-width="2.19" d="M526.76 86.93v-64c0-5.23-5.98-8.21-10.16-5.06l-18.77 14.15"/>
      <path fill="#fff" d="m472.51 2.38 46.25 28.6v30.89l-46.25-27.46V2.38Z"/>
      <path stroke="#000" stroke-miterlimit="10" stroke-width="1.1" d="m484.76 28.84 17.82 11.01v11.9l-17.82-10.57V28.84Zm-1.96 26.25c5.689 0 10.3-2.086 10.3-4.66 0-2.574-4.611-4.66-10.3-4.66-5.689 0-10.3 2.086-10.3 4.66 0 2.574 4.611 4.66 10.3 4.66Z"/>
      <path fill="#FF3205" d="m537.671 146.35-9.98-61.4-1.61.96 9.98 61.4c.32 1.95-.21 4.11-1.4 5.77-1.19 1.66-2.74 2.38-4.12 1.92l-4.86-1.63 6-9.69-4.82-29.63-1.95-1.07-10.04 15.74-.02-.12-6 9.4-1.34.24c.61-1.19.89-2.33.73-3.3-.46-2.8-4.31-2.91-8.78-.25s-7.61 6.93-7.16 9.73c.46 2.8 4.31 2.91 8.78.25 1.81-1.08 3.4-2.42 4.62-3.82l1.11.35-4.11 6.43.02.12-7.52 11.79 4.99 30.73 1.95 1.07 22.25-35.91 5.45 1.83c1.93.65 4.17-.39 5.84-2.72s2.43-5.46 1.99-8.19Zm-36.77-2.74c-4.29 2.55-7.5 2.22-7.81.32-.31-1.9 2.24-5.65 6.52-8.2 4.29-2.55 7.5-2.22 7.81-.32.31 1.9-2.24 5.66-6.53 8.2h.01Z"/>
    </g>
  </g>
  <defs>
    <clipPath id="a">
      <use xlink:href="#c"/>
    </clipPath>
    <clipPath id="b">
      <use xlink:href="#c"/>
    </clipPath>
  </defs>
</svg>
