<svg xmlns="http://www.w3.org/2000/svg" width="58" height="58" fill="none" viewBox="0 0 58 58">
  <path fill="#1FAD96" d="M8 9.878v12.245c0 .644.224.876.853.876h5.29c.613-.001.855-.232.855-.832.003-4.11.003-8.22 0-12.332 0-.601-.24-.834-.853-.834-1.764 0-3.527-.002-5.29 0-.627.002-.855.236-.855.877Zm9.685.538c.414-.097.827-.196 1.24-.295h.003c1.457-.35 2.913-.698 4.386-.956 2.533-.444 4.936-.005 7.077 1.491.837.585 1.674 1.174 2.609 1.83h-9.78c-2.38 0-3.926 1.698-3.667 4.068h.415c2.141 0 4.282-.004 6.423 0 1.537.004 2.77 1.179 2.783 2.645.015 1.548-1.162 2.766-2.729 2.776l-.852.007-.413.003c-1.806.017-3.613.034-5.415-.038-.634-.025-1.26-.198-1.888-.371a19 19 0 0 0-.86-.224V18.31l-.008-3.868v-.002L17 10.574l.684-.158Z"/>
  <path fill="#1FAD96" d="M23.74 23.93h-2.738l-.001.003v1.627c-.001 1.076-.002 2.144 0 3.212.002 1.341.867 2.228 2.175 2.228h21.635C46.148 31 47 30.12 47 28.742V16.304c0-1.444-.832-2.302-2.229-2.302H23.173L23.125 14h-.112c-.044 0-.088 0-.133.003-.788.046-1.607.734-1.674 1.414h1.71c1.14-.001 2.28-.002 3.42 0 1.096.001 2.076.345 2.877 1.13.23.226.454.29.752.29 3.762-.008 7.525-.005 11.287-.005.693 0 .892.183.962.875.064.636.584 1.175 1.199 1.246.677.078.85.277.85.99l.001 1.317v3.817c-.001.68-.192.9-.833.965-.625.064-1.145.589-1.216 1.226-.08.727-.265.896-.987.896h-9.491c-1.697 0-3.392.004-5.089-.001-.569-.001-.809-.235-.858-.803-.064-.755-.553-1.252-1.299-1.32-.503-.047-.74-.302-.75-.825-.006-.288-.004-.576-.003-.868v-.059l.002-.357ZM41 46.35V35.714c-1.051-.433-2.127-.715-3.267-.714h-4.465c-1.016 0-2.03 0-3.046.002-1.503.002-2.713 1.15-2.704 2.553.01 1.609 1.22 2.878 2.751 2.88h5.908c.554 0 .828.225.831.672.003.448-.273.68-.822.68-1.969.003-3.939.006-5.908 0-.972-.004-1.852-.3-2.604-.928-1.155-.967-1.624-2.221-1.478-3.737-.856-.24-1.703-.483-2.552-.716-.401-.11-.802-.22-1.202-.333h-.005a79.762 79.762 0 0 0-3.212-.85 2.589 2.589 0 0 0-2.847 1.18c-.765 1.265-.339 2.887 1.008 3.756a948.71 948.71 0 0 0 1.944 1.254l1.688 1.084a806.225 806.225 0 0 1 6.146 3.973c2.059 1.348 4.31 1.788 6.68 1.388 1.67-.281 3.326-.654 4.985-1.027l.005-.002c.721-.162 1.442-.324 2.166-.48Zm2.002-5.392v-6.034c0-.706.208-.922.896-.922a1732.58 1732.58 0 0 1 5.204 0c.674 0 .898.22.898.877v12.243c0 .645-.225.877-.853.877a4117.281 4117.281 0 0 1-5.291 0c-.629 0-.854-.231-.855-.875-.001-1.37-.001-2.74 0-4.11v-2.056Z"/>
  <path fill="#1FAD96" d="M33.986 20c-1.66.002-2.986 1.113-2.986 2.5.001 1.384 1.334 2.498 2.99 2.5 1.661.002 3.005-1.106 3.01-2.483.005-1.408-1.326-2.52-3.014-2.517Z"/>
</svg>
