<svg xmlns="http://www.w3.org/2000/svg" width="58" height="58" fill="none" viewBox="0 0 58 58">
  <path fill="#1FAD96" fill-rule="evenodd" d="M14.341 52.644h29.904v-.001l.19-.177c1.025-.503 1.928-1.156 2.363-2.258.206-.524.4-1.099.4-1.651.02-7.956.02-15.913.018-23.87v-5.51c0-.02-.003-.039-.008-.075l-.01-.078h-.48l-2.645-.001c-2.058 0-4.116-.002-6.174.002-1.062.002-2.07-.14-2.939-.83-.93-.738-1.61-1.676-1.65-2.855-.056-1.706-.045-3.415-.033-5.122.005-.705.01-1.41.01-2.115v-3.01h-2.238c-1.191 0-2.382.001-3.574-.004-.094 0-.187-.027-.28-.054A2.144 2.144 0 0 0 27.063 5h-.093a2.78 2.78 0 0 0-.146.035c-.104.027-.208.054-.312.054-1.275.002-2.55.002-3.825.002-1.97 0-3.941 0-5.912.007-.62.003-1.24.032-1.86.061-.283.014-.566.027-.85.038l-.277.093c-.96.366-1.694 1.01-2.27 1.846-.05.074-.08.16-.109.246-.014.04-.027.08-.043.118l-.07.1-.051.096-.05.096-.117.367c-.008.26-.019.52-.03.781-.023.58-.047 1.16-.047 1.74C11 23.41 11 36.14 11.007 48.87c0 .848.399 1.553.891 2.214.618.83 1.51 1.225 2.443 1.56Zm17.655-25.167h-4.287c-2.127 0-4.255 0-6.383-.003-.32 0-.646-.003-.96-.056-.496-.084-.983-.694-.95-1.26.032-.577.112-1.055.663-1.278.337-.137.731-.181 1.1-.181 5.366-.012 10.732-.01 16.098-.006 1.055 0 1.714.741 1.493 1.759-.126.58-.727 1.024-1.393 1.024h-5.381Zm5.371 5.571h-8.072l-.001.002H27.3c-1.995 0-3.99 0-5.985-.003-.319 0-.643-.011-.958-.06-.459-.074-.98-.66-.941-1.266.037-.58.125-1.053.672-1.276.336-.136.732-.175 1.102-.175 5.366-.01 10.732-.01 16.098-.003 1.054.001 1.706.75 1.482 1.768-.126.574-.733 1.013-1.403 1.013Zm-8.533 5.48v.092h-8.071c-.675 0-1.236-.435-1.39-1.07-.139-.565.162-1.263.712-1.536a1.81 1.81 0 0 1 .776-.172c5.32-.01 10.64-.02 15.959.01h.149c.547-.002 1.143-.005 1.564.525.353.443.31.944.167 1.39-.14.433-.487.764-1.03.764-2.209-.004-4.418-.003-6.627-.003h-2.21Zm-2.699 5.633v.034c-.511 0-1.023-.002-1.534-.004-1.253-.006-2.506-.01-3.759.015-.864.017-1.496-.696-1.488-1.375.01-.852.568-1.412 1.476-1.42.677-.007 1.355-.005 2.032-.004l.846.001h1.932c1.77-.002 3.541-.002 5.311.004.426.001.854.033 1.276.093.658.093 1.027.727.97 1.612-.03.492-.64 1.04-1.193 1.042-1.423.004-2.846.004-4.269.003h-1.6Z" clip-rule="evenodd"/>
  <path fill="#1FAD96" d="m36.176 15.492.087.177v.002a111.937 111.937 0 0 0 .377.38c.078.02.155.045.233.07.166.056.332.11.498.11 2.188.009 4.375.007 6.563.006h2.344a.108.108 0 0 0 .002-.086 7.888 7.888 0 0 0-.118-.105 4.19 4.19 0 0 1-.22-.203c-.639-.647-1.276-1.296-1.914-1.944a1126.28 1126.28 0 0 0-3.254-3.301c-.898-.907-1.8-1.809-2.704-2.71-.541-.541-1.083-1.082-1.623-1.624a2.054 2.054 0 0 1-.193-.231 5.197 5.197 0 0 0-.084-.11l-.087.073v9.31l.093.186Z"/>
</svg>
