<svg xmlns="http://www.w3.org/2000/svg" xml:space="preserve" viewBox="0 0 30 30">
  <path fill="#fefefe" d="M21 9.1c.2-.1.3-.7.3-1-.3-1.6-4-.5-5.9-1.2 0 .5.6 1.2 1.2 1.5-1 .9-1.9 2.6-2.1 4.7-.2-2.1-1.1-3.9-2.1-4.7.6-.3 1.2-1 1.2-1.5-1.9.7-5.6-.4-5.9 1.2 0 .4.1.9.3 1 0-.1.2-.4.7-.5 2.6-.4 4.8 3.6 2.8 5.3v.1h5.9s.1 0 0-.1c-2-1.6.2-5.7 2.8-5.3.6.1.8.4.8.5zm-11.8.7c.5-.4 1.1-.4 1.5-.3-.2-.3-.8-.5-1-.6-.2.1-.5.5-.5.9zm10-6.3-.5-.6-.5.6.5.6.5-.6zm-4-2.6-.7-.9-.7.9.7.9.7-.9zm8.1 20.3-.6-.7-.7.7.6.6.7-.6zM10.8 3.5l-.5-.6-.5.6.5.6.5-.6zm11.1 1c0-.2 1.5-.2 1.5.8 0 .6-.9.9-.9 1.6 0 .3.3.5.4.5-.2-1.1.7-.5 1-.3-.5-1.4.7-1.4.5-2.1-.1-.5-1.1-.3-1.5-.6-.7-.4-1.4-2-1.9-.4 1 .9.4 2.2-.8 2.2v.2c1.5 0 2-1.1 1.7-1.9zm-2.5 4.4c-.2 0-.7.3-1 .6.4-.1 1-.1 1.5.3 0-.4-.4-.8-.5-.9zm9.3 3.4c-.4.2-2.5 1.2-5.2.8 0-.1.1-.3.1-.4 1.8-.2 3.3-.5 4.2-1 1.1-.6 1.5-2 1-3.1h-.1c-.3.3-2.2 2.4-5.1 3v-.5c1.4-.8 2.8-1.7 3.5-2.6 1-1.3.9-2.9 0-3.8H27c-.3.5-3.1 5-6.2 7 0 0-.1 0-.1.1-.1.1-.1.2 0 .2.4.3.6.8.6 1.3 0 .9-.7 1.6-1.6 1.7-.4.1-1.1.1-1.7-.1h-.1v2.7s.1.1.1 0c.4-1 1.5-1.2 2-1.2.2 1.1.5 2 .9 2.4.7.8 1.8.8 2.3.2v-.1c-.3-.2-1.9-1.1-2.2-2.8.1 0 .2-.1.4-.2.5.9 1.3 1.6 1.9 1.9 1 .5 2 .3 2.4-.5v-.1c-.6-.1-2.6-.6-3.4-2l.3-.3c.9.7 2.1 1.2 3 1.4 1 .1 2.2-.2 2.2-1.4-.4 0-2.8.1-4.5-.9.1-.1.1-.2.2-.3 0 0 2.6.6 3.8.4.9.2 1.6-.7 1.4-1.8.1 0 0 0 0 0zM5.9 14.1c0 .1.1.3.1.4-1.7 1-4.1.9-4.5.9 0 1.2 1.2 1.5 2.2 1.4.9-.1 2.1-.7 3-1.4l.3.3c-.8 1.4-2.8 1.9-3.4 2v.1c.4.7 1.3 1 2.4.5.6-.3 1.4-1.1 1.9-1.9.1.1.2.1.4.2-.5 1.4-2.1 2.4-2.4 2.5v.1c.5.5 1.6.5 2.3-.2.4-.5.7-1.4.9-2.4.5 0 1.6.2 2 1.2h.1V15h-.1c-.6.2-1.3.2-1.7.1-.9-.2-1.6-.9-1.6-1.7 0-.5.2-.9.6-1.3.1-.1.1-.2 0-.2 0 0-.1 0-.1-.1-3.1-2-5.9-6.5-6.2-7H2c-.9.8-1 2.5 0 3.8.7.8 2 1.8 3.5 2.6v.5C2.6 11.1.7 9.1.4 8.7H.3c-.5 1.1-.1 2.5 1 3.1.9.5 2.4.8 4.2 1 0 .1 0 .3.1.4-2.7.4-4.8-.6-5.2-.8H.3c-.1 1.1.6 2 1.8 2.2 1.2.1 3.7-.5 3.8-.5zm3.4-7.6zm14.3 15.4-.9.7-.9-.7c-.4.2-.7.6-.8 1-.6.1-2.1-.3-2-.5 1.7-2.4.4-3.8-1.2-3.7v1.6c0 .5-.4.9-1 .9h-1.1c-.8 0-1.3.8-1.3.8s-.5-.8-1.3-.8H12c-.6 0-1-.4-1-.9v-1.6c-1.4-.1-2.7 1.3-1 3.7.1.2-1.4.6-2.2.5-.2-.2-.5-.3-.8-.3-.1 0-.3 0-.4.1 0 0-2.9-2.8-3-2.8v-.1c.2-.3-.1-.7-.2-.6.2-.2.2-1.2-.8-1.4v.6s-.8-.4-1.2-.1c-.4.4.1 1.2.1 1.2H.9c.3 1 1.3.9 1.5.7 0 .2.3.4.7.2l.1-.1L6.1 23c-.1.2-.2.4-.1.7.1.4.4.7.8.8.3.1.6 0 .8-.1l.8.7c.1.1.2.1.3.1.2 0 .3-.2.3-.3 0-.1 0-.1-.1-.2l-.8-.7c.6-.4 1.8-.7 2.8-.7.2 0 .2-.1.2-.3-.4-1.1.5-1.8 1.5-1.2.4.3.9.8 1.2 1.7-1.6.4-3.6 1.5-4 2.6-.2.4.4 1.1 1 1.2h.1c.3-1.7 2.2-3 3.2-3.2 0 .1 0 .1.1.2-1.1.5-2.1 1.6-2.4 2.8-.1.6.5 1.1 1 1.2h.1c.1-1.6.8-2.9 1.4-3.5v.4s-.6 1.8-.6 3.1c0 .6.9 1 1 1.1.2-.1 1.1-.5 1.1-1.1 0-1.3-.6-3.1-.6-3.1v-.4c.6.6 1.3 2 1.4 3.5.5-.1 1.2-.7 1-1.2-.3-1.3-1.3-2.3-2.4-2.8 0-.1 0-.1.1-.2 1 .2 2.8 1.5 3.2 3.2h.1c.6-.1 1.1-.7 1-1.2-.4-1.2-2.4-2.2-4-2.6.3-.9.8-1.4 1.2-1.7 1-.6 1.9.1 1.5 1.2-.1.1 0 .3.2.3 1.1 0 2.4.4 3 .9.3.5 1 .8 1.7.8.8-.1 1.5-.7 1.6-1.4-.3-.8-.6-1.4-1.2-1.7zM5.1 7.1c.3-.2 1.2-.8 1 .3.1 0 .4-.2.4-.5 0-.7-.9-1-.9-1.6 0-1 1.5-1 1.5-.8-.3.9.2 1.9 1.7 2v-.2C7.5 6.3 7 5 7.9 4.1c-.5-1.6-1.3 0-1.9.4-.4.2-1.4.1-1.5.5-.1.7 1.1.7.6 2.1zm0 0zm4.2-.6h1.9c1.6 0 2.3-1 2.5-1.8h1.6c.2.8.9 1.8 2.5 1.8h1.9s.3-.4.4-.7c.3-.8-.1-1.2-.7-1.2l-.7.6-.7-.6c-.6 0-.9.4-.6 1.2 0 .1.1.2.2.4-.7-.1-1.5-.5-1.7-1.5 0 0 .5-.8.6-1.1.5-1.2-.1-1.6-.9-1.6l-1.1 1.3L13.4 2c-.8 0-1.4.5-.9 1.6.1.3.6 1.1.6 1.1-.2 1-1 1.4-1.7 1.5.1-.1.2-.3.2-.4.3-.8-.1-1.2-.6-1.2l-.7.6-.7-.6c-.6 0-1 .4-.7 1.2.1.2.4.7.4.7zm4.8 12.9c0 .2.2.4.4.4s.4-.2.4-.4-.2-.4-.4-.4-.4.1-.4.4zm-.9.3c.3-.4.8-1.2.8-1.2V18l-1.5 1.1c0 .5.4.6.7.6zm2.6-3.6-.9 1.1v.5c.3-.3 1.3-1 1.6-1.2-.3 0-.7-.4-.7-.4zm-1.2.2c-.2.3-.4.2-.4.2v2.1h.4v-2.3zm-.6 1c-.9.7-1.9 1-1.9 1s0 .3.7.3c.4-.2 1.2-.9 1.2-.9v-.4zm1.7-2.2c-.2.4-.8 1.2-.8 1.2v.4s.7-.8 1.1-1.2c0 0 .5.3.3.6.2.2.4.2.5.2.6-.3-.8-1.5-1.1-1.2zM14 16.4s-.2-.3-.5-.5c-.1.3-.7.7-.7.7s.6.4 1 .6c.1 0 .3-.2.3-.2v-.6zm-1.5 0s.5-.3.7-.8c0-.3-.3-.4-.5-.4v.2H12l.2.6H12c.1-.1 0 .3.5.4zm2.4 2.1s.2.3.5.5c.1-.3.7-.7.7-.7s-.6-.4-1-.6c-.1 0-.3.2-.3.2v.6zm1.5 0s-.5.3-.7.8c0 .3.3.4.5.4v-.2h.7l-.3-.5h.2c0-.1.1-.5-.4-.5z"/>
</svg>
