<svg xmlns="http://www.w3.org/2000/svg" xml:space="preserve" id="Layer_1" x="0" y="0" version="1.1" viewBox="0 0 90 90">
  <style>
    .st0{fill:#ef3e58}
  </style>
  <path d="M68.5 45.7h-2.3c-.1 0-.1.1-.1.1v7.3c-.5.1-1 .2-1.6.2-1.5 0-1.9-.5-1.9-2.5v-5c0-.1-.1-.1-.1-.1h-2.3c-.1 0-.1.1-.1.1v5.3c0 3.3 1.1 4.5 3.9 4.5 1.6 0 3.4-.4 4.5-.8l.1-.1v-8.9l-.1-.1zm-48.5 0h-2.3c-.1 0-.1 0-.1.1-.4 1.4-1.1 3.9-2.1 6.4l-2.3-6.4-.1-.1h-2.4s-.1 0-.1.1v.1l3.5 9.6c-.3.7-.6 1.3-1 1.9-.3.4-.5.9-.7 1.3v.1l.1.1H15s.1 0 .1-.1c.5-1 1-2.1 1.5-3.1 1.5-3.5 2.7-6.8 3.6-9.8v-.1l-.2-.1zm8.3 7.4s0-.1 0 0l-.2-.1c-.6.2-1.6.4-2.3.4-1.6 0-2.4-.4-2.4-2.9 0-2 .3-2.9 2.4-2.9.6 0 1.1.1 1.9.3.1 0 .1 0 .1-.1l.9-1.9v-.1s0-.1-.1-.1c-1-.3-2-.5-3-.5-3.3 0-4.8 1.6-4.8 5.1 0 3.6 1.5 5.2 4.8 5.2.8 0 2.5-.2 3.3-.5.1 0 .1-.1.1-.2 0 .2-.7-1.7-.7-1.7zm21.8-7.4h-2.3c-.1 0-.1 0-.1.1-.4 1.5-1.1 3.9-2.1 6.4l-2.3-6.4-.1-.1h-2.4s-.1 0-.1.1v.1l3.5 9.6c-.3.7-.6 1.3-1 1.9-.3.4-.5.9-.7 1.3v.1l.1.1h2.5s.1 0 .1-.1c.5-1 1-2.1 1.5-3.1 1.5-3.5 2.7-6.8 3.6-9.8v-.1c-.1-.1-.2-.1-.2-.1zm8.6 0h-6.8c-.1 0-.1.1-.1.1v9.4c0 .1.1.1.1.1h2.3c.1 0 .1-.1.1-.1V48h3.5s.1 0 .1-.1c.3-.6.5-1.3.8-2v-.2z" class="st0"/>
  <path fill="#0f67b1" d="M22.7 31.2c-3.3 0-4.6 1.4-4.6 5 0 3.7 1.3 5.1 4.6 5.1s4.6-1.4 4.6-5.1c0-3.5-1.3-5-4.6-5zm0 8.1c-1.5 0-2-.4-2-3 0-2.7.5-3 2-3s2 .3 2 3c0 2.6-.5 3-2 3zm13.8-.4c-.1 0-.1 0 0 0l-.2-.1c-.6.2-1.6.4-2.3.4-1.6 0-2.4-.4-2.4-2.9 0-2 .2-2.9 2.4-2.9.6 0 1.1.1 1.9.3.1 0 .1 0 .1-.1l.9-1.9v-.1s0-.1-.1-.1c-1-.3-2-.5-3-.5-3.3 0-4.8 1.6-4.8 5.1 0 3.6 1.5 5.2 4.8 5.2.8 0 2.5-.2 3.3-.5.1 0 .1-.1.1-.2-.1.2-.7-1.7-.7-1.7zm-25.9-7.4c-.1 0-.1.1-.1.1V41c0 .1.1.1.1.1h2.3c.1 0 .1-.1.1-.1v-7.3h3.5s.1 0 .1-.1c.3-.6.5-1.3.8-2v-.1l-.1-.1c.1.1-6.7.1-6.7.1z"/>
  <linearGradient id="SVGID_1_" x1="-248.321" x2="-248.321" y1="461.633" y2="460.79" gradientTransform="matrix(79.1879 0 0 -90 19710.17 41554.086)" gradientUnits="userSpaceOnUse">
    <stop offset=".4" stop-color="#1466ac"/>
    <stop offset=".66" stop-color="#ef4058"/>
  </linearGradient>
  <path fill="url(#SVGID_1_)" fill-rule="evenodd" d="M79.2 54.4V54c.1-1.3.2-2.9.3-4.8v-.1l.1-4c0-1.4 0-2.8-.1-4V41l-.3-4.8v-.9c-.1-1.4-.2-2.3-.2-2.3v-.5c0-.2-.1-.5-.1-.7v-.1c-.6-2.9-2.2-6.1-4.2-8.5-.8-.9-1.6-1.8-2.5-2.4-3.2-2.4-6.6-4.6-10.1-6.6-5.3-3.1-10-5.3-10.6-5.5-1.4-.6-3.1-1-4.9-1.2-.4 0-.7-.1-1.1-.1H44c-2.5 0-4.7.5-6.5 1.3-.3.1-5 2.3-10.4 5.4l-.4-.1c-3.5 2.1-6.8 4.3-10.1 6.7-1.4 1-2.6 2.3-3.7 3.9-.3.4-.3 1.3.8 1.3h2.8c1.2 0 1.5-.7 2.8-1.7 1.5-1.1 4.4-3.2 9.7-6.4 3.8-2.3 7.4-4 9.1-4.8h.3c.4-.2.7-.3.7-.3 1.2-.5 2.9-.9 4.8-.9h.7c.5 0 1.1 0 1.6.1 1.1.1 2.1.4 2.9.7.1 0 .2.1.3.1 3.5 1.6 6.9 3.4 10.2 5.4 3.3 2 6.5 4.1 9.7 6.4.7.5 1.4 1.2 2 2 1.6 2.1 2.9 4.9 3.1 7.1 0 0 .1.9.2 2.4v2.9c.2 4.3.2 8.5 0 12.8v2.4-.1.3c-.1 1.5-.2 2.4-.2 2.4-.2 2.2-1.5 5-3.1 7.1-.6.8-1.3 1.5-2 2 0 0-1 .7-2.5 1.8-5.5 3.8-11.2 7.1-17.2 9.9l-.1.1c-.1 0-.2.1-.3.1-.8.3-1.8.6-2.9.7-.5.1-1 .1-1.6.1H44c-1.8 0-3.5-.4-4.8-.9 0 0-.3-.1-.7-.3 0 0-.1 0-.1-.1 0 0-.1 0-.1-.1h-.2s-.1 0-.1-.1c-3-1.4-6-3-8.9-4.7-5.3-3.1-8.2-5.3-9.7-6.4-1.3-1-1.6-1.7-2.8-1.7h-2.7c-1.1 0-1.1.9-.8 1.3 1.1 1.6 2.3 2.9 3.7 3.9.2.1 4.5 3.4 10.1 6.6.3.2.6.4.9.5 5.1 2.9 9.5 4.9 9.8 5.1 1.8.8 4 1.3 6.5 1.3h1.5c.4 0 .7 0 1.1-.1 1.8-.2 3.5-.6 4.9-1.2.6-.3 5.3-2.5 10.6-5.5 2.5-1.5 5-3.1 7.4-4.7l2.6-1.9c.9-.6 1.7-1.5 2.5-2.4 2-2.4 3.6-5.6 4.2-8.5v-.1c0-.3.1-.5.1-.7v-.5c0-.1.1-.9.2-2.3v-.6" clip-rule="evenodd"/>
  <path d="M38.8 45.7h-7c-.1 0-.1 0-.1.1-.2 3.2-.8 6.6-1.6 9.4v.1h2.5c.1 0 .1 0 .1-.1.7-2.1 1.2-4.9 1.4-7.3h2.3v7.3c0 .1.1.1.1.1h2.3c.1 0 .1-.1.1-.1v-9.4c.1 0 0-.1-.1-.1z" class="st0"/>
</svg>
