<?xml version="1.0" encoding="utf-8"?>
<!-- Generator: Adobe Illustrator 27.6.1, SVG Export Plug-In . SVG Version: 6.00 Build 0)  -->
<svg version="1.1" id="Layer_1" xmlns="http://www.w3.org/2000/svg" xmlns:xlink="http://www.w3.org/1999/xlink" x="0px" y="0px"
	 viewBox="0 0 90 90" style="enable-background:new 0 0 90 90;" xml:space="preserve">
<style type="text/css">
	.st0{fill:#EF3E58;}
	.st1{fill:#0F67B1;}
	.st2{fill-rule:evenodd;clip-rule:evenodd;fill:url(#SVGID_1_);}
</style>
<g>
	<path class="st0" d="M68.5,45.7h-2.3c-0.1,0-0.1,0.1-0.1,0.1v7.3c-0.5,0.1-1,0.2-1.6,0.2c-1.5,0-1.9-0.5-1.9-2.5v-5
		c0-0.1-0.1-0.1-0.1-0.1h-2.3c-0.1,0-0.1,0.1-0.1,0.1v5.3c0,3.3,1.1,4.5,3.9,4.5c1.6,0,3.4-0.4,4.5-0.8c0,0,0.1-0.1,0.1-0.1v-8.9
		C68.6,45.8,68.5,45.7,68.5,45.7L68.5,45.7z M20,45.7h-2.3c-0.1,0-0.1,0-0.1,0.1c-0.4,1.4-1.1,3.9-2.1,6.4l-2.3-6.4
		c0,0-0.1-0.1-0.1-0.1h-2.4c0,0-0.1,0-0.1,0.1c0,0,0,0.1,0,0.1l3.5,9.6c-0.3,0.7-0.6,1.3-1,1.9c-0.3,0.4-0.5,0.9-0.7,1.3
		c0,0,0,0.1,0,0.1c0,0,0.1,0.1,0.1,0.1H15c0,0,0.1,0,0.1-0.1c0.5-1,1-2.1,1.5-3.1c1.5-3.5,2.7-6.8,3.6-9.8c0,0,0-0.1,0-0.1
		C20,45.7,20,45.7,20,45.7z M28.3,53.1C28.3,53.1,28.3,53,28.3,53.1L28.1,53c-0.6,0.2-1.6,0.4-2.3,0.4c-1.6,0-2.4-0.4-2.4-2.9
		c0-2,0.3-2.9,2.4-2.9c0.6,0,1.1,0.1,1.9,0.3c0.1,0,0.1,0,0.1-0.1l0.9-1.9v-0.1c0,0,0-0.1-0.1-0.1c-1-0.3-2-0.5-3-0.5
		c-3.3,0-4.8,1.6-4.8,5.1c0,3.6,1.5,5.2,4.8,5.2c0.8,0,2.5-0.2,3.3-0.5c0.1,0,0.1-0.1,0.1-0.2C29,55,28.3,53.1,28.3,53.1z
		 M50.1,45.7h-2.3c-0.1,0-0.1,0-0.1,0.1c-0.4,1.5-1.1,3.9-2.1,6.4l-2.3-6.4c0,0-0.1-0.1-0.1-0.1h-2.4c0,0-0.1,0-0.1,0.1
		c0,0,0,0.1,0,0.1l3.5,9.6c-0.3,0.7-0.6,1.3-1,1.9c-0.3,0.4-0.5,0.9-0.7,1.3c0,0,0,0.1,0,0.1c0,0,0.1,0.1,0.1,0.1h2.5
		c0,0,0.1,0,0.1-0.1c0.5-1,1-2.1,1.5-3.1c1.5-3.5,2.7-6.8,3.6-9.8c0,0,0-0.1,0-0.1C50.2,45.7,50.1,45.7,50.1,45.7z M58.7,45.7h-6.8
		c-0.1,0-0.1,0.1-0.1,0.1v9.4c0,0.1,0.1,0.1,0.1,0.1h2.3c0.1,0,0.1-0.1,0.1-0.1V48h3.5c0,0,0.1,0,0.1-0.1c0.3-0.6,0.5-1.3,0.8-2
		v-0.1C58.7,45.7,58.7,45.7,58.7,45.7z"/>
	<path class="st1" d="M22.7,31.2c-3.3,0-4.6,1.4-4.6,5c0,3.7,1.3,5.1,4.6,5.1c3.3,0,4.6-1.4,4.6-5.1C27.3,32.7,26,31.2,22.7,31.2z
		 M22.7,39.3c-1.5,0-2-0.4-2-3c0-2.7,0.5-3,2-3c1.5,0,2,0.3,2,3C24.7,38.9,24.2,39.3,22.7,39.3z M36.5,38.9
		C36.4,38.9,36.4,38.9,36.5,38.9l-0.2-0.1c-0.6,0.2-1.6,0.4-2.3,0.4c-1.6,0-2.4-0.4-2.4-2.9c0-2,0.2-2.9,2.4-2.9
		c0.6,0,1.1,0.1,1.9,0.3c0.1,0,0.1,0,0.1-0.1l0.9-1.9v-0.1c0,0,0-0.1-0.1-0.1c-1-0.3-2-0.5-3-0.5c-3.3,0-4.8,1.6-4.8,5.1
		c0,3.6,1.5,5.2,4.8,5.2c0.8,0,2.5-0.2,3.3-0.5c0.1,0,0.1-0.1,0.1-0.2C37.1,40.8,36.5,38.9,36.5,38.9z M10.6,31.5
		c-0.1,0-0.1,0.1-0.1,0.1v9.4c0,0.1,0.1,0.1,0.1,0.1h2.3c0.1,0,0.1-0.1,0.1-0.1v-7.3h3.5c0,0,0.1,0,0.1-0.1c0.3-0.6,0.5-1.3,0.8-2
		v-0.1c0,0-0.1-0.1-0.1-0.1C17.4,31.5,10.6,31.5,10.6,31.5z"/>
	
		<linearGradient id="SVGID_1_" gradientUnits="userSpaceOnUse" x1="-248.3205" y1="461.633" x2="-248.3205" y2="460.7896" gradientTransform="matrix(79.1879 0 0 -90 19710.1699 41554.0859)">
		<stop  offset="0.4" style="stop-color:#1466AC"/>
		<stop  offset="0.66" style="stop-color:#EF4058"/>
	</linearGradient>
	<path class="st2" d="M79.2,54.4v-0.1c0-0.1,0-0.2,0-0.3c0.1-1.3,0.2-2.9,0.3-4.8v-0.1l0.1-4c0-1.4,0-2.8-0.1-4v-0.1l-0.3-4.8
		c0-0.1,0-0.2,0-0.3v-0.1c0-0.1,0-0.3,0-0.4v-0.1c-0.1-1.4-0.2-2.3-0.2-2.3c0-0.1,0-0.3,0-0.4v-0.1c0-0.2-0.1-0.5-0.1-0.7
		c0,0,0-0.1,0-0.1c-0.6-2.9-2.2-6.1-4.2-8.5c-0.8-0.9-1.6-1.8-2.5-2.4c-3.2-2.4-6.6-4.6-10.1-6.6c-5.3-3.1-10-5.3-10.6-5.5
		c0,0,0,0,0,0c-1.4-0.6-3.1-1-4.9-1.2c-0.4,0-0.7-0.1-1.1-0.1c-0.3,0-0.6,0-1,0h-0.5c-2.5,0-4.7,0.5-6.5,1.3
		c-0.3,0.1-5,2.3-10.4,5.4L26.7,14c-3.5,2.1-6.8,4.3-10.1,6.7c-1.4,1-2.6,2.3-3.7,3.9c-0.3,0.4-0.3,1.3,0.8,1.3h2.8
		c1.2,0,1.5-0.7,2.8-1.7c1.5-1.1,4.4-3.2,9.7-6.4c3.8-2.3,7.4-4,9.1-4.8c0,0,0.1,0,0.1,0c0,0,0,0,0,0c0,0,0,0,0,0c0,0,0.1,0,0.1,0
		c0,0,0.1,0,0.1,0c0.4-0.2,0.7-0.3,0.7-0.3c1.2-0.5,2.9-0.9,4.8-0.9h0.7c0.5,0,1.1,0,1.6,0.1c1.1,0.1,2.1,0.4,2.9,0.7
		c0.1,0,0.2,0.1,0.3,0.1c3.5,1.6,6.9,3.4,10.2,5.4c3.3,2,6.5,4.1,9.7,6.4c0.7,0.5,1.4,1.2,2,2c1.6,2.1,2.9,4.9,3.1,7.1
		c0,0,0.1,0.9,0.2,2.4c0,0.1,0,0.2,0,0.3v0.2c0,0.1,0,0.3,0,0.4v0.1c0,0.1,0,0.2,0,0.3c0,0.2,0,0.4,0,0.5c0,0.1,0,0.2,0,0.3v0.1
		c0,0.1,0,0.3,0,0.4v0.3c0.2,4.3,0.2,8.5,0,12.8v0.3c0,0.1,0,0.3,0,0.4v0.1c0,0.1,0,0.2,0,0.3c0,0.2,0,0.4,0,0.5c0,0.1,0,0.2,0,0.3
		v0.1c0,0.1,0,0.3,0,0.4V54c0,0.1,0,0.2,0,0.3c-0.1,1.5-0.2,2.4-0.2,2.4c-0.2,2.2-1.5,5-3.1,7.1c-0.6,0.8-1.3,1.5-2,2
		c0,0-1,0.7-2.5,1.8c-5.5,3.8-11.2,7.1-17.2,9.9l-0.1,0.1c-0.1,0-0.2,0.1-0.3,0.1c-0.8,0.3-1.8,0.6-2.9,0.7c-0.5,0.1-1,0.1-1.6,0.1
		H44c-1.8,0-3.5-0.4-4.8-0.9c0,0-0.3-0.1-0.7-0.3c0,0-0.1,0-0.1-0.1c0,0-0.1,0-0.1-0.1c0,0,0,0-0.1,0c0,0-0.1,0-0.1,0
		c0,0-0.1,0-0.1-0.1h0c-3-1.4-6-3-8.9-4.7c-5.3-3.1-8.2-5.3-9.7-6.4c-1.3-1-1.6-1.7-2.8-1.7h-2.7c-1.1,0-1.1,0.9-0.8,1.3
		c1.1,1.6,2.3,2.9,3.7,3.9c0.2,0.1,4.5,3.4,10.1,6.6c0.3,0.2,0.6,0.4,0.9,0.5c5.1,2.9,9.5,4.9,9.8,5.1c1.8,0.8,4,1.3,6.5,1.3h0.5
		c0.3,0,0.6,0,1,0c0.4,0,0.7,0,1.1-0.1c1.8-0.2,3.5-0.6,4.9-1.2c0,0,0,0,0,0c0.6-0.3,5.3-2.5,10.6-5.5c2.5-1.5,5-3.1,7.4-4.7
		l2.6-1.9c0.9-0.6,1.7-1.5,2.5-2.4c2-2.4,3.6-5.6,4.2-8.5c0,0,0-0.1,0-0.1c0-0.3,0.1-0.5,0.1-0.7v-0.1c0-0.1,0-0.3,0-0.4
		c0-0.1,0.1-0.9,0.2-2.3v-0.1C79.2,54.6,79.2,54.5,79.2,54.4"/>
	<path class="st0" d="M38.8,45.7h-7c-0.1,0-0.1,0-0.1,0.1c-0.2,3.2-0.8,6.6-1.6,9.4c0,0,0,0.1,0,0.1c0,0,0.1,0,0.1,0h2.4
		c0.1,0,0.1,0,0.1-0.1c0.7-2.1,1.2-4.9,1.4-7.3h2.3v7.3c0,0.1,0.1,0.1,0.1,0.1h2.3c0.1,0,0.1-0.1,0.1-0.1v-9.4
		C39,45.8,38.9,45.7,38.8,45.7z"/>
</g>
</svg>
