<svg xmlns="http://www.w3.org/2000/svg" width="58" height="58" fill="none" viewBox="0 0 58 58">
  <path fill="#1FAD96" d="m30.786 9.36-.001-.706v.001c0-.221 0-.443.002-.665.002-.517.005-1.035-.006-1.552-.012-.58-.564-1.307-1.027-1.39-.93-.166-1.537.093-1.828.846-.098.253-.1.552-.1.834v.057c-.008 1.445-.006 2.89.006 4.336.005.454.601 1.156 1.01 1.238 1.046.209 1.933-.512 1.943-1.586.003-.47.002-.942.001-1.413ZM13.805 25.7a16.262 16.262 0 0 1 1.566.01c.81.056 1.269-.3 1.595-1.003a38.84 38.84 0 0 1 .925-1.82c.129-.242.257-.485.384-.728.453-.87 1.102-1.533 2.011-1.93.107-.047.205-.112.304-.177.045-.03.09-.059.135-.086a31.28 31.28 0 0 0 .282-.11l2.962-.02c3.102-.024 6.205-.047 9.307-.055h.025c.506 0 1.041 0 1.455.438.35.371.536.792.459 1.273-.084.525-.2 1.045-.317 1.565-.05.23-.102.46-.15.69-.075.352-.258.492-.648.486l-.263-.003c-1.82-.025-3.643-.05-5.464-.005-1.72.042-3.346.506-4.498 1.853-.685.8-1.191 1.774-1.677 2.721-.716 1.395-1.416 2.798-2.116 4.2a361.27 361.27 0 0 1-2.377 4.71c-.506.978-.113 1.937.785 2.293l.497.199c.719.289 1.437.578 2.174.805.402.125.826.178 1.25.23.192.024.383.048.572.078.04.027.08.058.119.089.095.074.19.149.298.172.048.01.117-.074.185-.158.03-.037.061-.074.09-.103.254-.042.509-.08.764-.12.631-.096 1.262-.192 1.88-.341.433-.104.843-.366 1.224-.616.403-.265.789-.556 1.175-.847.162-.122.324-.244.487-.364l.063-.056.135-.12.715-.838.103-.122.017-.016 1.158-1.714.04-.04.04-.038c.697-.128 1.203.106 1.716.63a883.04 883.04 0 0 0 6.403 6.436c.892.89 1.784 1.782 2.675 2.674.17.17.325.353.48.537l.216.251c-.461.64-1.117.908-1.787 1.13-.658.22-1.322.422-1.986.624h-.002l-.796.244-.302.18-1.572.451-1.582.455-.082.048-.001.001-.002.001-.217.13-1.843.53-1.312.377-.302.18c-.335.1-.669.208-1.002.316-.77.249-1.54.498-2.33.648a4.033 4.033 0 0 1-2.992-.577c-.038-.026-.076-.05-.114-.077a29.471 29.471 0 0 0-.36-.31 14.543 14.543 0 0 1-.743-.667c-.464-.457-.924-.919-1.384-1.38-.713-.715-1.426-1.43-2.153-2.13a1.297 1.297 0 0 0-.81-.325c-1.592-.02-3.185-.018-4.79-.016l-1.454.001a2.227 2.227 0 0 0-.017-.092c-.012-.062-.025-.124-.025-.186-.002-6.727 0-13.455 0-20.182 0-.043.005-.085.01-.127l.006-.069.041-.04a3.74 3.74 0 0 1 .041-.039l-.001.004c.234-.002.468-.008.702-.014Zm34.792 20.728a1.593 1.593 0 0 0-.007-.053l-.005-.035a1.22 1.22 0 0 1-.02-.183V25.99c0-.048.006-.097.011-.144l.005-.052.08-.077.003-.003.973-.004c1.166-.005 2.333-.01 3.5-.001.13 0 .26.055.391.11.06.025.121.05.182.07-.206.412.028.551.268.694.104.062.209.124.28.21l-.003.01c-.07.277-.149.58.336.572v17.384c-.24-.02-.385.024-.41.327-.038.459-.23.811-.779.856-.256.02-.52.131-.49.487h-4.315Z"/>
  <path fill="#1FAD96" d="M45.59 28.71a978.93 978.93 0 0 1-.007-1.436h-.002l-.04-.04-.041-.04a9.579 9.579 0 0 1-.131-.006 5.218 5.218 0 0 0-.263-.01l-4.403.002c-4.11 0-8.221.002-12.331-.006-1.417-.003-2.387.674-3.006 1.888a587.102 587.102 0 0 0-3.132 6.247c-.286.576-.557 1.159-.828 1.742v.001c-.123.264-.246.529-.37.792l.067.075a5.734 5.734 0 0 0 3.402.315c1.442-.293 2.664-.99 3.498-2.207.442-.646.796-1.356 1.148-2.063a54.7 54.7 0 0 1 .243-.484c.146-.288.306-.39.628-.376.467.02.935.017 1.402.013.223-.002.446-.004.669-.003.864.004 1.672.187 2.346.772l.163.147c.127.114.254.229.374.35l2.55 2.548a9171.9 9171.9 0 0 0 7.643 7.637c.08.078.18.134.281.19.05.028.098.056.145.086l.002-4.544.002-9.079c-.001-.837-.005-1.673-.01-2.51v-.002ZM4.111 45.558l-.096-.407c0-1.58.001-3.159.003-4.738.004-4.344.007-8.687-.018-13.03-.007-1.15.777-1.731 1.7-1.698.993.036 1.989.032 2.984.029.42-.002.84-.003 1.259-.002.027.027.054.055.081.08l.007.92c.004.614.008 1.228.008 1.843V46.43c-.464 0-.926.003-1.385.005h-.001c-1.2.006-2.384.012-3.568-.023-.468-.014-.825-.369-.976-.855h.002Zm17.607-29.642-.513.613c-.06.027-.119.055-.178.08-.511.4-1.188.216-1.608-.171-.493-.453-.972-.92-1.45-1.387-.4-.39-.8-.781-1.209-1.163-.594-.555-.94-1.182-.78-2.019l.098-.198c.038-.06.075-.122.112-.183.09-.15.18-.3.283-.44.058-.08.18-.161.268-.157l.13.004c.359.01.722.02 1.068.097.15.034.282.143.415.252.059.049.118.097.179.14l.094.104c.071.08.143.16.219.235.661.656 1.324 1.311 1.987 1.966l.663.656c.345.436.514.91.296 1.462-.024.036-.05.07-.075.106l.001.003Zm20.765-4.057c-.296-1.02-1.746-1.158-2.404-.582l-2.97 2.97c-.53.702-.536 1.614-.012 2.107.61.578 1.542.622 2.116.063a150.757 150.757 0 0 0 2.965-2.966c.436-.448.472-1.015.305-1.592Z"/>
</svg>
