<svg xmlns="http://www.w3.org/2000/svg" width="26" height="46" fill="none" viewBox="0 0 26 46">
  <path fill="#23873C" fill-rule="evenodd" d="m13.03 35.673-8.977-8.7H4.04l-.24-.233C1.367 24.374 0 21.167 0 17.825c0-3.343 1.367-6.55 3.8-8.916L13.005 0l9.75 9.487c2.106 2.325 3.261 5.32 3.245 8.415a12.441 12.441 0 0 1-3.334 8.383l-.544.54-9.092 8.848Zm-.038-30.512-6.52 6.341-.026-.086a8.885 8.885 0 0 0-2 2.902 8.67 8.67 0 0 0-.697 3.427c-.002.41.023.82.076 1.228l11.7-11.354-2.533-2.458Zm7.636 7.631L7.763 25.376l-1.064-1.02-.228-.21c-.424-.424-.81-.885-1.152-1.375l12.915-12.535 1.266 1.23c.425.4.803.845 1.128 1.326Zm-7.623 17.696 6.52-6.341a8.927 8.927 0 0 0 2.225-3.436 8.71 8.71 0 0 0 .435-4.035L10.473 28.03l2.532 2.458Z" clip-rule="evenodd"/>
  <path fill="#23873C" d="M22.704 31.384a12.693 12.693 0 0 0 2.95-5.555h.139a12.51 12.51 0 0 1-.28 5.721 12.643 12.643 0 0 1-2.809 5.019l-.54.543L13.15 46l-9.141-8.975A12.69 12.69 0 0 1 .83 31.85a12.522 12.522 0 0 1-.39-6.033h.151a12.463 12.463 0 0 0 3.416 6.025c.073.084.153.162.238.234l8.903 8.753 9.015-8.889.54-.555Z"/>
</svg>
