<svg xmlns="http://www.w3.org/2000/svg" width="58" height="58" fill="none" viewBox="0 0 58 58">
  <path fill="#fff" d="M30.135 5.458s-.093.186-.155.248c-.248.341-.527.713-.807 1.055-.124.186-.248.217-.403 0-.14-.187-.287-.373-.434-.559-.147-.186-.295-.372-.434-.558-.124-.155-.124-.28 0-.434.103-.124.21-.245.317-.366.213-.24.427-.482.613-.751.093-.124.124-.124.217 0 .341.403.683.807.993 1.24 0 .02.012.04.028.066.01.016.022.035.034.059h.03Zm-6.287 9.087c.648-.021 1.155-.323 1.633-.712.528-.403.807-.993 1.055-1.613.091-.274-.052-.447-.184-.606a1.257 1.257 0 0 1-.126-.17c-.372-.65-.745-1.302-.93-2.047-.156-.589-.063-1.147.34-1.582.373-.372.93-.589 1.458-.434.23.063.36.265.497.476.067.103.135.208.217.3.31.34.62.713.93 1.085.186.248.31.248.496 0 .233-.294.473-.574.714-.853.24-.279.48-.558.713-.853.124-.155.217-.186.403-.155 1.458.124 1.8.993 1.52 2.233-.155.683-.527 1.303-.9 1.861-.31.435-.31.807-.092 1.241.465.962 1.24 1.551 2.264 1.83.032 0 .065.008.096.015.058.013.112.026.152-.015.08-.08.023-.16-.034-.239a1.373 1.373 0 0 1-.028-.04c-.248-.465-.372-.93-.248-1.427.186-.744.993-1.023 1.55-.527.156.124.311.248.435.372.31.269.63.269.962 0 0 0 .248-.186.34-.31.28-.372.621-.403 1.024-.248.373.155.59.434.652.868.055.748-.31 1.299-.676 1.85a6.753 6.753 0 0 0-.13.198c-.047.093-.13.08-.207.07a.501.501 0 0 0-.073-.008c-.402 0-.807.01-1.214.02-.817.02-1.638.042-2.446-.02-1.644-.155-2.854-.962-3.536-2.73-.093-.248-.186-.28-.403-.28h-2.047c-.31 0-.434.094-.528.404-.496 1.303-1.395 2.14-2.76 2.512-.519.136-1.021.14-1.519.144-.187.002-.373.003-.56.012H20.86c-.528.03-.9-.062-1.148-.59a18.19 18.19 0 0 0-.087-.171c-.251-.491-.486-.95-.347-1.535a.952.952 0 0 1 .62-.744c.341-.124.651-.186.93.155.063.062.125.124.218.186.806.713.837.713 1.52-.093.31-.372.651-.403 1.054-.248.403.155.59.465.59.9 0 .279 0 .527-.094.775a24.28 24.28 0 0 0-.268.743Zm24.028 19.821a1.566 1.566 0 0 1-.026.062l-.164-.022a2.699 2.699 0 0 1-.523-.102c-1.148-.341-2.264-.776-3.257-1.458a7.651 7.651 0 0 1-1.613-1.55c-.124-.187-.062-.342.093-.497.155-.155.28-.248.465-.093 1.18.837 2.45 1.52 3.847 1.954 1.24.372 2.45.465 3.629-.155.682-.341 1.054-.962 1.178-1.706.031-.186.031-.341-.248-.341-.557.044-1.13.009-1.695-.026-.223-.014-.444-.028-.662-.036a12.933 12.933 0 0 1-4.808-1.21c-.027-.014-.063-.024-.101-.036-.137-.04-.3-.087-.178-.305a.98.98 0 0 0 .05-.137c.062-.191.133-.414.477-.266.207.091.448.132.685.172.083.014.165.028.246.045.198.034.395.07.59.105.693.126 1.376.25 2.077.298l.155.012c1.101.09 2.254.185 3.35-.23 1.427-.558 2.482-2.016 2.14-3.66-.186.078-.372.148-.558.218-.186.07-.372.14-.558.217a14.582 14.582 0 0 1-4.125.992c-1.086.093-2.172.124-3.257 0l-.022-.002c-.507-.06-.566-.067-.413-.556.08-.267.3-.258.477-.25l.082.002c1.799-.217 3.567-.527 5.304-1.117 1.24-.434 2.357-1.023 2.977-2.264.62-1.21.714-2.45.063-3.722-1.272 1.396-2.7 2.574-4.343 3.505a17.113 17.113 0 0 1-4.218 1.675c-.093.03-.186.062-.248-.031-.125-.155 0-.745.154-.838l.442-.261h.001c.999-.591 1.989-1.176 2.907-1.879 1.117-.837 2.203-1.706 2.916-2.978.93-1.613 1.055-4.032-.434-5.49-.217-.248-.248-.248-.403 0-.59 1.024-1.272 2.017-1.985 2.978-1.241 1.675-2.544 3.35-3.97 4.87-1.459 1.52-2.947 2.947-4.715 4.063-.28.186-.342.341-.063.59.435.403.745.93.838 1.52.248 1.736-.806 3.101-2.481 3.535-.98.245-1.868.067-2.785-.116l-.038-.008c-.341-.062-.403-.03-.403.31v4.126a.481.481 0 0 1-.005.056c-.01.084-.021.179.129.254.558-1.396 1.768-1.892 3.133-2.11.186-.03.34 0 .372.249.155.775.341 1.55.62 2.295.434 1.148 1.024 2.14 2.234 2.575.775.279 1.674.217 2.357-.341.217-.125.217-.249 0-.373-.31-.217-.62-.434-.9-.651-1.21-.993-2.202-2.11-2.605-3.66a.899.899 0 0 0-.015-.036l-.014-.03c-.06-.132-.118-.258.122-.337.042-.013.086-.03.13-.047.18-.07.365-.14.49.109.238.416.561.803.86 1.163l.04.046c.93 1.117 2.016 2.047 3.567 2.234.972.09 2.182-.264 2.61-1.24.06.008.12.018.181.03l-.155-.093ZM5.63 37.374h.93c-.061-.17-.116-.341-.17-.512-.054-.17-.108-.34-.17-.511-.218-.683.186-1.21.868-1.241.465 0 .9.124 1.334.31.065-.26.024-.49-.017-.72a3.35 3.35 0 0 1-.045-.303c.9.248 1.582.713 1.613 1.674 0 .497.03.962.372 1.396.03.062.062.155 0 .217-.237.342-.027.528.155.69.033.03.065.057.093.086.729.682 1.45 1.364 2.171 2.047.721.682 1.443 1.365 2.171 2.047.218.217.435.372.807.248.527-.186.992.093 1.396.373.03.02.058.044.086.068a.45.45 0 0 0 .193.118c1.148.062 2.233-.124 3.319-.497.279-.093.465-.248.186-.62-.558-.776-.962-1.613-1.148-2.575-.403-2.14 1.086-3.598 3.071-3.566.248 0 .248.154.248.31v2.45c0 .868.807 1.582 1.613 1.55h1.24c1.086-.092 1.986.28 2.7 1.087.154.186.216.248.402 0 .652-.776 1.458-1.18 2.482-1.117h1.427c.837.03 1.644-.714 1.644-1.675v-2.326c0-.218.062-.31.279-.31 1.768 0 3.226 1.21 3.04 3.194-.125 1.086-.559 2.047-1.148 2.916-.217.28-.186.496.155.62.93.342 1.861.559 2.854.528.17 0 .21-.104.264-.24l.015-.04c.217-.527.527-.992 1.023-1.302.156-.093.248-.124.404 0 .201.17.41.333.62.496.21.163.419.326.62.496.124.124.186.093.342 0 .31-.279.65-.558.992-.806.496-.372.651-.341 1.024.062 1.426 1.52.93 3.567-.838 4.435-1.24.62-2.853.342-3.69-.744-.435-.558-.994-.869-1.614-1.117-1.085-.434-2.233-.713-3.443-.744-.651 0-.713-.093-.527-.714.31-1.085-.155-2.078-1.303-2.202-.713-.093-1.303.248-1.799.683-.69.6-1.09 1.43-1.48 2.241l-.04.085c-.062.155 0 .248.155.28.418.122.816.264 1.225.41.108.039.216.078.326.116 1.644.652 3.164 1.427 4.374 2.73.34.341.59.744.744 1.179.186.496-.093.93-.403 1.302-.28.342-.651.528-1.055.714-.186.093-.31 0-.372-.186-.28-1.272-.961-2.327-1.861-3.226-.9-.9-1.954-1.644-3.164-2.078h-.124c-.035 0-.072-.013-.109-.025-.094-.03-.187-.061-.232.118-.055.166.038.233.146.312l.04.029c1.737.992 3.07 2.326 3.66 4.28.341 1.117-.372 2.358-1.52 2.513-.206.026-.198-.078-.19-.184l.003-.025v-.014l.001-.017v-.008c-.248-1.83-.713-3.599-1.799-5.118-.077-.109-.163-.21-.248-.31-.085-.101-.17-.202-.248-.31 0-.032-.062-.063-.155-.094-.093.31-.062.559 0 .869.465 1.55.9 3.102.992 4.745.062.776-.34 1.21-.868 1.644-.047.031-.085.062-.124.093-.039.031-.078.063-.124.093-.404.249-.776.404-1.272.063-1.24-.838-1.334-1.365-1.179-2.575.155-1.117.404-2.202.683-3.288.027-.091.052-.18.076-.268.059-.21.116-.413.203-.631.093-.248.093-.466-.062-.714-.465.373-.745.838-1.024 1.334a10.857 10.857 0 0 0-1.364 4.498v.024l.003.029c.01.089.02.195-.159.195-.868-.031-1.892-1.334-1.706-2.203.186-.837.59-1.581 1.086-2.264a8.06 8.06 0 0 1 2.792-2.42c.124-.061.186-.123.093-.278-.062-.124-.124-.155-.28-.124-.713.186-1.364.558-1.985.961-1.023.744-1.923 1.613-2.543 2.73-.28.496-.527.992-.62 1.55-.031.28-.186.404-.435.249-.434-.217-.868-.435-1.147-.869-.341-.496-.404-1.085-.062-1.582.589-.93 1.396-1.613 2.326-2.17 1.21-.745 2.481-1.366 3.846-1.707.466-.124.527-.248.31-.682-.434-.93-.961-1.83-1.86-2.42-.714-.434-1.738-.527-2.327.155-.465.528-.403 1.148-.248 1.768.124.559.062.652-.496.683-1.458 0-2.823.403-4.126 1.023-.341.156-.31.342-.062.559.088.078.18.156.272.236.2.172.406.348.597.54.403.371.434.62.186.868-.248.279-.559.248-.93-.062-.31-.28-.621-.559-.9-.869-.155-.155-.31-.217-.528-.124-.961.341-1.737.093-2.326-.713-.341-.466-.341-.962-.124-1.458.093-.248.062-.372-.093-.528-.651-.62-1.31-1.24-1.97-1.86-.659-.62-1.318-1.241-1.97-1.862l-.371-.372c-.249-.279-.466-.403-.838-.155-.28.186-.558 0-.744-.217-.155-.155-.28-.155-.466-.093-.775.31-2.047-.341-2.264-1.427l.217.093Z"/>
  <path fill="#fff" d="M5.392 25.466a36.644 36.644 0 0 0-.91-.343v.031c-.34 2.016.9 3.35 2.606 3.784 1.303.31 2.637.155 3.94-.062l.61-.098h.001c.736-.117 1.483-.235 2.21-.429.235-.07.292.089.346.238.018.048.035.096.058.134.093.124.062.248-.093.31-1.21.559-2.45.993-3.784 1.148-1.148.155-2.326.248-3.505.186-.217-.03-.28.062-.28.28.094.806.497 1.426 1.21 1.798.962.497 1.955.528 2.978.28 1.582-.373 3.009-1.086 4.343-2.048l.037-.022c.143-.088.288-.177.459.022l.026.033c.118.144.24.295.067.526-.372.465-.776.9-1.24 1.271a9.78 9.78 0 0 1-4.157 1.8c-.403.062-.28.217-.124.403.341.403.744.713 1.271.837 1.117.28 2.14 0 3.102-.62 1.055-.683 1.8-1.675 2.513-2.668.217-.279.34-.248.62-.155.27.108.211.263.15.423l-.026.074a4.675 4.675 0 0 1-.434 1.085 7.873 7.873 0 0 1-2.978 3.07c-.217.156-.279.342 0 .528.714.465 1.49.558 2.295.28 1.086-.373 1.675-1.241 2.11-2.234.34-.806.59-1.675.744-2.575.031-.279.124-.31.372-.279a4.81 4.81 0 0 1 1.49.404c.682.31 1.209.775 1.52 1.458.006.021.01.05.014.08.014.1.029.215.171.168.076-.026.07-.132.065-.221a1.066 1.066 0 0 1-.003-.059v-4.218c0-.248-.03-.341-.341-.28-.93.218-1.892.404-2.885.156-.961-.248-2.14-1.117-2.388-2.171-.217-1.024-.093-1.985.651-2.792.342-.372.31-.527-.093-.775-1.427-.9-2.667-2.016-3.846-3.195A36.447 36.447 0 0 1 11.4 17.74c-1.24-1.582-2.419-3.195-3.473-4.87-.497-.775-.62-.806-1.117-.03-1.117 1.705-.869 3.66.093 5.241.836 1.412 2.18 2.342 3.51 3.263l.305.211a38.224 38.224 0 0 0 2.388 1.489c.24.152.174.334.114.504a.664.664 0 0 0-.051.21c-.022.173-.12.134-.218.095a.37.37 0 0 0-.124-.034c-.152 0-.292-.058-.436-.117a1.904 1.904 0 0 0-.277-.1c-1.489-.372-2.823-1.054-4.094-1.86-1.21-.776-2.358-1.676-3.32-2.761-.278-.341-.403-.217-.496.124-.434 1.52-.186 2.915.869 4.094 1.04 1.18 2.485 1.546 3.901 1.904l.441.112c.753.194 1.525.313 2.285.43.211.032.422.064.631.098.094.01.19.013.289.017.195.007.394.014.58.076.237.064.234.234.231.395a.6.6 0 0 0 .017.194c.062.124-.186.124-.31.124a2.706 2.706 0 0 0-.62.044c-.166.025-.332.05-.497.05a17.964 17.964 0 0 1-4.963-.59c-.562-.161-1.112-.374-1.665-.588Zm22.075-9.586c-.217 1.117-.869 1.83-1.706 2.388-.138.092-.207.139-.213.192-.006.055.056.117.182.242 1.21 1.272 2.016 2.73 2.543 4.405.31.93.497 1.861.683 2.885.183-.326.233-.666.28-.993.025-.17.05-.337.092-.496.527-2.171 1.365-4.157 2.978-5.8.221-.25.146-.301-.027-.42l-.066-.046c-.745-.496-1.334-1.147-1.613-2.016 0-.062 0-.155-.031-.217 0 0 0-.062.03-.093 1.451.475 2.922.446 4.397.417.354-.007.708-.014 1.063-.014 1.116 0 2.264 0 3.35.372 1.178.373 1.675 1.8.992 2.792-.062.093-.155.217-.279 0-.527-.838-1.396-.838-2.233-.713-1.985.279-3.288 1.457-4.25 3.132-.527.93-.806 1.892-.806 2.947 0 1.117.31 2.11 1.21 2.885a.504.504 0 0 1 .093.186H23.93c-.06-.148.079-.24.173-.302l.013-.008c.868-.838 1.117-1.893 1.055-3.04-.093-1.551-.745-2.823-1.737-3.97-.9-1.024-2.047-1.706-3.412-1.861a3.31 3.31 0 0 0-1.458.155c-.28.093-.527.279-.652.558-.093.248-.186.186-.279 0-.713-1.365-.279-2.512 1.272-2.885.9-.217 1.8-.248 2.73-.279.317 0 .634.003.95.006 1.11.011 2.22.022 3.33-.099a7.997 7.997 0 0 0 1.55-.372v.062Z"/>
  <path fill="#fff" fill-rule="evenodd" d="M26.506 34.242c-.095.127-.143.282-.191.437-.094.3-.186.598-.615.68.155-.404.03-.714-.155-1.024-.187-.31-.31-.651 0-.993.186-.186.837-.217 1.085 0 .217.217.403.217.62.031a.626.626 0 0 1 .342-.093c.155 0 .248-.062.217-.248 0-.155-.031-.31-.248-.279-.434 0-.807-.124-1.179-.31s-.682-.465-.682-.869c0-.34.279-.651.651-.775.062 0 .155-.062.186-.093.078-.065.19-.092.294-.117.145-.035.277-.067.296-.193 0-.2-.08-.4-.159-.599-.031-.08-.063-.16-.09-.239a11.22 11.22 0 0 0-.34-.93l-.012-.034c-.032-.087-.068-.187.042-.215.124-.062.186.063.217.156.078.201.163.395.248.588.086.194.171.389.249.59l.424 1.199a320.272 320.272 0 0 0 1.654 4.602 158.65 158.65 0 0 0 1.334 3.505c.155.403.062.527-.373.65-1.054.249-2.078.28-3.07-.185-.435-.217-.807-.403-1.303-.403-.341 0-.652-.28-.745-.652-.093-.372 0-.713.31-1.054v.434c0 .155.125.217.249.217.108 0 .11-.076.113-.154 0-.033.002-.066.01-.094.063-.807.28-1.582.714-2.264.171-.286.097-.548.022-.816-.048-.168-.096-.339-.084-.518l-.03.062Zm1.365 3.102a3.18 3.18 0 0 0-.101-.38c-.059-.19-.116-.374-.116-.582 0-.05.006-.107.013-.165.019-.156.038-.317-.075-.362-.13-.065-.215.067-.297.195a.89.89 0 0 1-.107.146c-.403.403-.775.837-.868 1.55.527-.31 1.024-.402 1.582-.402h-.031Z" clip-rule="evenodd"/>
  <path fill="#fff" d="M29.783 31.306c.554-.538 1.228-.537 1.871-.445.466.062.745.868.528 1.396-.093.217-.218.403-.342.589-.093.124-.217.186-.403.155-.186-.062-.186-.217-.124-.372v-.031c0-.047.006-.095.012-.144.017-.145.035-.29-.105-.384-.062-.062-.155 0-.186.063-.155.186-.186.372-.093.589l.031.092c.051.148.098.286.124.466.062.465.155.807.806.807.652 0 1.024.651.962 1.302 0 .093-.031.217-.186.248-.093-.527-.372-.868-.9-.961-.62-.124-1.023.248-.837.806.105.35.16.709.217 1.072.043.282.087.567.155.852.13-.04.244-.106.358-.172.156-.092.313-.183.51-.2.466-.032.683.154.59.62-.155.775-.744 1.24-1.365 1.643-.093.063-.248.094-.31-.123-.18-.52-.37-1.03-.557-1.536-.137-.368-.274-.735-.405-1.101a93.234 93.234 0 0 0-1.395-3.784 54.54 54.54 0 0 1-.217-.61c-.166-.477-.332-.95-.528-1.406-.124-.248.062-.31.248-.341.28 0 .466 0 .466-.404 0-.186.155-.434.434-.434.033 0 .069-.002.104-.004.165-.01.341-.02.392.16.062.216.062.464-.155.65-.217.156-.186.342 0 .528.132.105.22.256.3.414ZM45.146 16.19a3.257 3.257 0 0 0-.869-.435c-.59-.155-.806 0-.806.59v.34c-.683-.185-.93-.899-.528-1.52.134-.221.314-.411.497-.603.073-.077.146-.154.217-.234l.053-.058c.295-.322.598-.654.598-1.151 0-.652-.341-1.148-.992-1.365a15.847 15.847 0 0 1-.62-.186c-.249-.062-.497-.124-.745 0-.256.128-.19.286-.123.442.03.07.06.142.06.21 0 1.395-.62 2.201-1.86 2.636-.06.02-.12.042-.18.065-.22.084-.445.17-.689.12-.124 0-.248 0-.248-.154 0-.148.078-.159.172-.173a.76.76 0 0 0 .076-.013c1.21-.187 1.8-.776 1.954-1.83.093-.559-.124-1.055-.434-1.49l-.012-.016c-.392-.542-.418-.579-.019-1.193.28-.465.682-.558 1.117-.248.217.155.403.341.589.527.28.28.559.559.838.869.411.436.936.531 1.457.626.146.027.292.053.435.087h.217c1.054.217 1.085.869.527 1.458-.465.496-.9 1.024-.806 1.799.022.202.06.404.104.629.016.086.034.176.05.27h-.03Zm-30.674.507-.002.051-.062-.031.064-.02Zm0 0c.046-1.308-.509-1.092-1.336-.724-.09.045-.165.09-.259.148l-.113.069c0-.198.028-.389.055-.577.037-.257.074-.507.038-.757-.062-.496-.31-.838-.62-1.148a2.036 2.036 0 0 1-.373-.527c-.248-.496-.062-.869.466-1.024.372-.093.744-.186 1.116-.217.807-.03 1.303-.558 1.8-1.116a9.59 9.59 0 0 1 .806-.807c.341-.279.868-.279 1.085-.03.404.433.497.899.218 1.27-.838 1.024-.683 2.296.124 2.979.34.279.744.465 1.21.496h.042c.125-.004.295-.008.267.186 0 .197-.137.179-.255.163a.68.68 0 0 0-.086-.008c-1.271-.155-2.667-.993-2.636-2.543v-.435c0-.558-.093-.651-.652-.527-.124.031-.255.062-.387.093s-.264.062-.388.093c-1.117.372-1.396 1.458-.62 2.326.124.14.256.28.387.42.132.139.264.278.388.418.543.663.44 1.531-.277 1.779ZM43.906 40.57a.894.894 0 0 0 .124-.186l-.062.031a.286.286 0 0 0-.058-.073c-.02-.02-.035-.035-.035-.05l-.837-.931c-.093-.124-.217-.031-.217 0-.163.255-.379.459-.594.663-.071.067-.143.135-.213.205-.062.093-.124.186 0 .31.12.098.228.212.334.323.197.205.386.403.628.484.153.038.306-.137.467-.32.1-.113.201-.23.308-.3a.373.373 0 0 0 .155-.156Zm-7.63-31.639.029.032c-.34.28-.681.62-.805 1.023-.041.103.138.29.317.475.09.093.18.187.242.27 0 .036.02.061.038.082.013.016.023.028.023.041.094.155.187.186.28 0 .074-.137.2-.254.32-.367.18-.168.35-.328.331-.532-.021-.213-.217-.41-.418-.613-.092-.094-.186-.189-.264-.287a.488.488 0 0 0-.064-.092h.002l-.031-.032ZM20.953 10.08c.217.279.465.589.713.868v.03c.248-.31.465-.557.682-.805.01-.016.024-.033.036-.05.062-.078.129-.163.026-.292a3.18 3.18 0 0 1-.232-.313c-.162-.236-.323-.472-.512-.493-.215-.024-.394.266-.564.542-.05.082-.1.162-.15.233v.031c-.124.062-.062.186 0 .248ZM38.23 20.811c-.838-.496-1.614-.806-2.637-.434.453-.481.932-.704 1.413-.928l.138-.064c.093-.031.217 0 .34.062.404.34.56.806.745 1.364Zm-18.362-.093c.745-.434 1.489-.713 2.482-.34-.528-.497-1.024-.745-1.551-.962-.062-.062-.186-.031-.248 0-.373.186-.683.837-.683 1.302Z"/>
</svg>
