<svg xmlns="http://www.w3.org/2000/svg" width="58" height="58" fill="none" viewBox="0 0 58 58">
  <path fill="#fff" d="M40.643 55.032c-1.52-.879-3.073-1.655-4.526-2.601-2.939-1.96-5.37-4.425-7.026-7.567-1.114-2.128-1.689-4.39-1.689-6.79v-8.68c0-1.25.575-1.993 1.723-2.398 3.716-1.25 7.431-2.534 11.147-3.784.642-.202 1.25-.236 1.858 0a1475.41 1475.41 0 0 0 11.248 3.817c.844.27 1.317.878 1.655 1.655v10.033c0 .169-.067.371-.101.54v.507c-.17 1.756-.71 3.411-1.486 4.999-1.52 2.973-3.784 5.303-6.452 7.262-1.588 1.183-3.277 2.23-5.1 2.94l-.305.1h-.946v-.033Zm-.202-15.47c-.879-.88-1.723-1.757-2.601-2.602-.608-.608-1.318-.81-2.128-.608-1.655.44-2.196 2.432-.98 3.682 1.385 1.419 2.804 2.804 4.189 4.222 1.216 1.216 2.635 1.115 3.682-.27 1.013-1.351 1.992-2.668 3.006-4.02 1.148-1.52 2.297-3.006 3.411-4.56 1.014-1.384.305-3.175-1.35-3.513-.879-.169-1.622.17-2.162.912-1.69 2.23-3.345 4.46-5.067 6.756Z"/>
  <path fill="#F9AF76" d="M54.93 39.19c0-.168.067-.371.101-.54v.507h-.101v.034Z"/>
  <path fill="#F9AF76" d="M54.93 39.19h.101v.506h-.101v-.506ZM41.894 54.93v.103h-.304l.304-.101Z"/>
  <path fill="#fff" d="M25.206 24.26c-1.317 1.216-2.027 2.736-2.162 4.459-.574-.068-1.115-.17-1.689-.17H11.02c-1.216 0-2.06.677-2.297 1.791-.27 1.149.608 2.365 1.756 2.534.27.033.507.033.777.033H21.49c.44 0 .878-.101 1.318-.169h.202v5.033c-.034 3.682.946 7.06 2.838 10.201.067.102.135.203.169.304l-.034.102H8.182C4.669 48.378 2 45.709 2 42.196V8.148C2 4.668 4.669 2 8.148 2h25.367c3.277 0 6.013 2.635 6.047 5.877.034 3.581 0 7.128 0 10.708v.17c-2.23.776-4.459 1.52-6.688 2.262-.27-.304-.473-.675-.777-.878-.406-.236-.879-.473-1.318-.473H10.85c-1.182 0-2.162 1.014-2.162 2.196 0 1.182.98 2.162 2.162 2.195h14.39v.17l-.034.033Zm-9.897-13.376c-1.52 0-3.04-.034-4.56 0a2.147 2.147 0 0 0-2.095 2.195c0 1.149.946 2.162 2.128 2.196 3.007.034 6.013.034 8.985 0 1.453 0 2.433-1.453 2.027-2.838-.27-.945-1.114-1.553-2.263-1.553h-4.256.034Z"/>
  <path fill="#F9AF76" d="M25.207 24.26v-.169h.135c-.034.034-.067.102-.101.136l-.034.033Z"/>
</svg>
