<svg xmlns="http://www.w3.org/2000/svg" width="58" height="58" fill="none" viewBox="0 0 58 58">
  <path fill="#fff" d="M37.61 13.657a499.054 499.054 0 0 0-4.256-4.391c.202-.136.371-.237.54-.338 5.472-3.175 12.7-2.331 17.193 2.128 2.297 2.263 3.648 5.134 4.256 8.31 1.081 5.843-.337 11.045-4.39 15.436C46.56 39.532 42 44.125 36.798 48.01c-1.554 1.148-3.276 2.094-4.965 3.04-1.588.844-3.21.776-4.864 0-2.196-.98-4.121-2.365-6.013-3.851-4.966-3.952-9.492-8.411-13.748-13.106-2.364-2.601-3.682-5.776-4.087-9.323-.54-4.932.71-9.39 3.884-13.207 1.892-2.264 4.425-3.581 7.297-4.19 5.269-1.114 9.863.271 13.714 4.054 2.466 2.432 4.864 4.898 7.33 7.33 1.452 1.453 3.816.845 4.39-1.08.271-.879.102-1.723-.506-2.433-.304-.371-.675-.675-1.013-.98-.203-.202-.406-.438-.642-.641l.034.034ZM26.7 34.059v2.533c0 1.453 1.114 2.568 2.566 2.601 1.453 0 2.601-1.114 2.635-2.6v-2.534l.101-.101h2.534c1.824-.068 3.04-1.69 2.533-3.412-.338-1.115-1.317-1.824-2.635-1.824h-2.533v-.507c0-.878.068-1.79-.067-2.634-.203-1.352-1.487-2.23-2.905-2.095-1.25.135-2.263 1.25-2.263 2.567v2.669h-2.162c-.44 0-.912 0-1.318.169-1.182.371-1.925 1.554-1.79 2.702.169 1.351 1.216 2.297 2.567 2.365h2.601c0 .033.068.067.102.1h.033Z"/>
  <path fill="#F9AF76" d="m26.6 33.957.1.101c0-.034-.067-.067-.1-.101Z"/>
</svg>
