<svg xmlns="http://www.w3.org/2000/svg" id="Layer_1" data-name="Layer 1" viewBox="0 0 92.76 255.39">
  <defs>
    <style>
      .cls-1{fill:#f57f20}
    </style>
  </defs>
  <g id="tab_left" data-name="tab left">
    <path d="M90.11 2.52c-1.91.08-3.8.23-5.67.43C38.38 7.84 2.5 46.81 2.5 94.17v158.72h90.26V2.5h-2.65Z" class="cls-1"/>
    <path fill="none" d="M90.11 5.02C42.81 7.19 5 46.34 5 94.17v156.22h87.76V5c-.88 0-1.77 0-2.65.02Z"/>
    <path d="M90.11 250.38H5V94.17C5 46.34 42.81 7.19 90.11 5.02c.88-.01 1.77 0 2.65-.02V0h-2.65c-6.73.29-13.28 1.29-19.57 2.93C30.01 13.48 0 50.39 0 94.17v161.22h92.76v-5h-2.65Z" class="cls-1"/>
  </g>
</svg>
