<svg xmlns="http://www.w3.org/2000/svg" id="Layer_1" data-name="Layer 1" viewBox="0 0 471.32 255.46">
  <defs>
    <style>
      .cls-1{fill:#f57f20}
    </style>
  </defs>
  <path id="tab_right" d="M594.09 113.31C581.68 68.4 555.06 16 498.06 3.03c-8.26-1.88-17.16-2.92-26.75-3v5c72.58.64 104.21 59.88 117.96 109.62 11.7 42.34 32.08 116.05 83.8 135.83H471.31v5h229.54v-5c-68.85 0-93.51-89.22-106.77-137.16h.01Z" class="cls-1" data-name="tab right"/>
  <g id="tab_middle" data-name="tab middle">
    <path d="M470.13 2.5H14c-4.69 0-9.35.03-13.99.08v250.38h471.31V2.52h-1.19Z" class="cls-1"/>
    <path fill="none" d="M468.22 5H14c-4.69 0-9.35.03-13.99.08v245.38h471.31V5.02c-.4 0-.79-.02-1.19-.02h-1.91Z"/>
    <path d="M14 5h456.13c.4 0 .79.01 1.19.02v-5c-.4 0-.79-.02-1.19-.02H14C9.31 0 4.66.03.01.08v5C4.66 5.04 9.31 5 14 5Zm454.22 245.46H0v5h471.31v-5h-3.09Z" class="cls-1"/>
  </g>
</svg>
